<svg width="33" height="32" viewBox="0 0 33 32" fill="none" xmlns="http://www.w3.org/2000/svg">
<path fill-rule="evenodd" clip-rule="evenodd" d="M16.5635 31.8523H16.4365C10.0823 31.8523 6.36718 31.2171 3.78008 28.6952C1.11405 25.9954 0.5 22.3274 0.5 16.0381V15.8602C0.5 9.57082 1.11405 5.87794 3.78008 3.20301C6.3922 0.683062 10.0823 0.0458984 16.4346 0.0458984H16.5635C22.8907 0.0458984 26.6058 0.683062 29.22 3.20301C31.886 5.90281 32.5 9.57082 32.5 15.8602V16.0381C32.5 22.3293 31.8841 26.0222 29.22 28.6952C26.6058 31.2152 22.9177 31.8523 16.5635 31.8523ZM28.6137 15.4769C28.7371 15.4827 28.8373 15.5842 28.8373 15.7068H28.8354V16.2202C28.8354 16.3447 28.7352 16.4462 28.6118 16.4501C24.1854 16.6167 21.4932 17.176 19.6065 19.0514C17.7218 20.9248 17.1591 23.5971 16.9895 27.9895C16.9837 28.112 16.8816 28.2116 16.7582 28.2116H16.2398C16.1146 28.2116 16.0124 28.112 16.0086 27.9895C15.839 23.5971 15.2763 20.9248 13.3916 19.0514C11.5069 17.178 8.81277 16.6167 4.38619 16.4501C4.26285 16.4443 4.16265 16.3428 4.16265 16.2202V15.7068C4.16265 15.5823 4.26285 15.4808 4.38619 15.4769C8.81277 15.3103 11.5049 14.7509 13.3916 12.8756C15.2801 10.9983 15.8429 8.31655 16.0105 3.90883C16.0163 3.78623 16.1184 3.68661 16.2418 3.68661H16.7582C16.8835 3.68661 16.9856 3.78623 16.9895 3.90883C17.1571 8.31847 17.7199 10.9983 19.6084 12.8756C21.4932 14.749 24.1873 15.3103 28.6137 15.4769Z" fill="white"/>
</svg>
