<svg width="44" height="44" viewBox="0 0 44 44" fill="none" xmlns="http://www.w3.org/2000/svg">
<path d="M3.33341 26.6667L22.0001 19.6667L40.6667 26.6667M22.002 1C27.4522 5.82201 34.5657 8.33265 41.8353 8C42.8937 11.6004 43.2175 15.3768 42.7876 19.1048C42.3577 22.8328 41.1827 26.4363 39.3326 29.7012C37.4824 32.9662 34.9949 35.8259 32.0177 38.1105C29.0405 40.395 25.6345 42.0578 22.002 43C18.3695 42.0578 14.9634 40.395 11.9862 38.1105C9.00906 35.8259 6.5215 32.9662 4.67136 29.7012C2.82123 26.4363 1.64629 22.8328 1.21635 19.1048C0.786413 15.3768 1.11026 11.6004 2.16864 8C9.43821 8.33265 16.5517 5.82201 22.002 1Z" stroke="white" stroke-width="2" stroke-linecap="round" stroke-linejoin="round"/>
</svg>
