<svg width="301" height="294" viewBox="0 0 301 294" fill="none" xmlns="http://www.w3.org/2000/svg">
<g filter="url(#filter0_d_1160_14986)">
<rect x="129.345" y="73.0615" width="110.909" height="152.121" rx="2.42424" transform="rotate(4.48323 129.345 73.0615)" fill="white"/>
<rect x="137.283" y="80.3711" width="12.7273" height="7.27273" rx="1.21212" transform="rotate(4.48323 137.283 80.3711)" fill="#FA4F19"/>
<rect x="151.737" y="82.1123" width="20" height="2.42424" rx="1.21212" transform="rotate(4.48323 151.737 82.1123)" fill="#4E5457"/>
<rect x="141.927" y="83.167" width="3.63636" height="2.42424" rx="1.21212" transform="rotate(4.48323 141.927 83.167)" fill="white"/>
<rect x="151.453" y="85.7373" width="15.1515" height="2.42424" rx="1.21212" transform="rotate(4.48323 151.453 85.7373)" fill="#4E5457"/>
<rect opacity="0.5" x="136.004" y="96.6846" width="68.4848" height="3.63636" rx="1.21212" transform="rotate(4.48323 136.004 96.6846)" fill="#4E5457"/>
<rect x="135.436" y="103.935" width="44.8485" height="43.6364" rx="1.21212" transform="rotate(4.48323 135.436 103.935)" fill="#EDEADF"/>
<rect opacity="0.2" x="182.563" y="107.63" width="46.0606" height="3.0303" rx="1.21212" transform="rotate(4.48323 182.563 107.63)" fill="#4E5457"/>
<rect opacity="0.2" x="182.137" y="113.067" width="46.0606" height="3.0303" rx="1.21212" transform="rotate(4.48323 182.137 113.067)" fill="#4E5457"/>
<rect opacity="0.2" x="181.711" y="118.506" width="46.0606" height="3.0303" rx="1.21212" transform="rotate(4.48323 181.711 118.506)" fill="#4E5457"/>
<rect opacity="0.2" x="181.237" y="124.547" width="46.0606" height="3.0303" rx="1.21212" transform="rotate(4.48323 181.237 124.547)" fill="#4E5457"/>
<rect opacity="0.2" x="180.811" y="129.985" width="46.0606" height="3.0303" rx="1.21212" transform="rotate(4.48323 180.811 129.985)" fill="#4E5457"/>
<rect opacity="0.2" x="180.384" y="135.423" width="46.0606" height="3.0303" rx="1.21212" transform="rotate(4.48323 180.384 135.423)" fill="#4E5457"/>
<rect opacity="0.2" x="179.91" y="141.466" width="46.0606" height="3.0303" rx="1.21212" transform="rotate(4.48323 179.91 141.466)" fill="#4E5457"/>
<rect opacity="0.2" x="179.484" y="146.903" width="33.9394" height="3.0303" rx="1.21212" transform="rotate(4.48323 179.484 146.903)" fill="#4E5457"/>
<rect opacity="0.5" x="130.698" y="164.355" width="33.9394" height="3.63636" rx="1.21212" transform="rotate(4.48323 130.698 164.355)" fill="#4E5457"/>
<rect opacity="0.2" x="130.13" y="171.605" width="46.0606" height="3.0303" rx="1.21212" transform="rotate(4.48323 130.13 171.605)" fill="#4E5457"/>
<rect opacity="0.2" x="129.703" y="177.044" width="46.0606" height="3.0303" rx="1.21212" transform="rotate(4.48323 129.703 177.044)" fill="#4E5457"/>
<rect opacity="0.2" x="129.277" y="182.481" width="46.0606" height="3.0303" rx="1.21212" transform="rotate(4.48323 129.277 182.481)" fill="#4E5457"/>
<rect opacity="0.2" x="128.803" y="188.523" width="46.0606" height="3.0303" rx="1.21212" transform="rotate(4.48323 128.803 188.523)" fill="#4E5457"/>
<rect opacity="0.2" x="128.377" y="193.961" width="46.0606" height="3.0303" rx="1.21212" transform="rotate(4.48323 128.377 193.961)" fill="#4E5457"/>
<rect opacity="0.2" x="127.951" y="199.399" width="46.0606" height="3.0303" rx="1.21212" transform="rotate(4.48323 127.951 199.399)" fill="#4E5457"/>
<rect opacity="0.2" x="127.477" y="205.441" width="46.0606" height="3.0303" rx="1.21212" transform="rotate(4.48323 127.477 205.441)" fill="#4E5457"/>
<rect opacity="0.2" x="127.051" y="210.879" width="33.9394" height="3.0303" rx="1.21212" transform="rotate(4.48323 127.051 210.879)" fill="#4E5457"/>
<rect x="178.467" y="175.396" width="44.8485" height="43.6364" rx="1.21212" transform="rotate(4.48323 178.467 175.396)" fill="#EDEADF"/>
</g>
<g filter="url(#filter1_d_1160_14986)">
<rect x="61.0908" y="74.8613" width="110.909" height="152.121" rx="2.42424" transform="rotate(-7.21116 61.0908 74.8613)" fill="white"/>
<rect x="70.3455" y="80.4102" width="12.7273" height="7.27273" rx="1.21212" transform="rotate(-7.21116 70.3455 80.4102)" fill="#FA4F19"/>
<rect x="73.3125" y="103.859" width="46.0606" height="21.2121" rx="1.21212" transform="rotate(-7.21116 73.3125 103.859)" fill="#FA4F19"/>
<rect x="76.1272" y="126.106" width="46.0606" height="21.2121" rx="1.21212" transform="rotate(-7.21116 76.1272 126.106)" fill="#EDEADF"/>
<rect x="120.211" y="97.9258" width="46.0606" height="43.6364" rx="1.21212" transform="rotate(-7.21116 120.211 97.9258)" fill="#4E5457"/>
<rect x="84.8521" y="79.1855" width="20" height="2.42424" rx="1.21212" transform="rotate(-7.21116 84.8521 79.1855)" fill="#4E5457"/>
<rect opacity="0.5" x="79.7029" y="154.366" width="93.3333" height="3.63636" rx="1.21212" transform="rotate(-7.21116 79.7029 154.366)" fill="#4E5457"/>
<rect opacity="0.5" x="72.3994" y="96.6445" width="68.4848" height="3.63636" rx="1.21212" transform="rotate(-7.21116 72.3994 96.6445)" fill="#4E5457"/>
<rect x="75.46" y="82.207" width="3.63636" height="2.42424" rx="1.21212" transform="rotate(-7.21116 75.46 82.207)" fill="white"/>
<rect x="85.3086" y="82.7939" width="15.1515" height="2.42424" rx="1.21212" transform="rotate(-7.21116 85.3086 82.7939)" fill="#4E5457"/>
<rect opacity="0.5" x="80.4636" y="160.379" width="70.9091" height="3.63636" rx="1.21212" transform="rotate(-7.21116 80.4636 160.379)" fill="#4E5457"/>
<rect opacity="0.2" x="81.4526" y="168.195" width="46.0606" height="3.0303" rx="1.21212" transform="rotate(-7.21116 81.4526 168.195)" fill="#4E5457"/>
<rect opacity="0.2" x="128.953" y="162.186" width="46.0606" height="3.0303" rx="1.21212" transform="rotate(-7.21116 128.953 162.186)" fill="#4E5457"/>
<rect opacity="0.2" x="82.1372" y="173.606" width="46.0606" height="3.0303" rx="1.21212" transform="rotate(-7.21116 82.1372 173.606)" fill="#4E5457"/>
<rect opacity="0.2" x="129.637" y="167.597" width="46.0606" height="3.0303" rx="1.21212" transform="rotate(-7.21116 129.637 167.597)" fill="#4E5457"/>
<rect opacity="0.2" x="82.822" y="179.019" width="46.0606" height="3.0303" rx="1.21212" transform="rotate(-7.21116 82.822 179.019)" fill="#4E5457"/>
<rect opacity="0.2" x="130.322" y="173.008" width="46.0606" height="3.0303" rx="1.21212" transform="rotate(-7.21116 130.322 173.008)" fill="#4E5457"/>
<rect opacity="0.2" x="83.5828" y="185.031" width="46.0606" height="3.0303" rx="1.21212" transform="rotate(-7.21116 83.5828 185.031)" fill="#4E5457"/>
<rect opacity="0.2" x="131.083" y="179.021" width="46.0606" height="3.0303" rx="1.21212" transform="rotate(-7.21116 131.083 179.021)" fill="#4E5457"/>
<rect opacity="0.2" x="84.2676" y="190.442" width="46.0606" height="3.0303" rx="1.21212" transform="rotate(-7.21116 84.2676 190.442)" fill="#4E5457"/>
<rect opacity="0.2" x="131.768" y="184.433" width="46.0606" height="3.0303" rx="1.21212" transform="rotate(-7.21116 131.768 184.433)" fill="#4E5457"/>
<rect opacity="0.2" x="84.9521" y="195.854" width="46.0606" height="3.0303" rx="1.21212" transform="rotate(-7.21116 84.9521 195.854)" fill="#4E5457"/>
<rect opacity="0.2" x="132.452" y="189.844" width="46.0606" height="3.0303" rx="1.21212" transform="rotate(-7.21116 132.452 189.844)" fill="#4E5457"/>
<rect opacity="0.2" x="85.7129" y="201.866" width="46.0606" height="3.0303" rx="1.21212" transform="rotate(-7.21116 85.7129 201.866)" fill="#4E5457"/>
<rect opacity="0.2" x="133.213" y="195.856" width="46.0606" height="3.0303" rx="1.21212" transform="rotate(-7.21116 133.213 195.856)" fill="#4E5457"/>
<rect opacity="0.2" x="86.3977" y="207.277" width="46.0606" height="3.0303" rx="1.21212" transform="rotate(-7.21116 86.3977 207.277)" fill="#4E5457"/>
<rect opacity="0.2" x="87.0825" y="212.688" width="33.9394" height="3.0303" rx="1.21212" transform="rotate(-7.21116 87.0825 212.688)" fill="#4E5457"/>
<rect opacity="0.2" x="133.898" y="201.268" width="33.9394" height="3.0303" rx="1.21212" transform="rotate(-7.21116 133.898 201.268)" fill="#4E5457"/>
</g>
<defs>
<filter id="filter0_d_1160_14986" x="57.0304" y="12.6371" width="243.309" height="281.174" filterUnits="userSpaceOnUse" color-interpolation-filters="sRGB">
<feFlood flood-opacity="0" result="BackgroundImageFix"/>
<feColorMatrix in="SourceAlpha" type="matrix" values="0 0 0 0 0 0 0 0 0 0 0 0 0 0 0 0 0 0 127 0" result="hardAlpha"/>
<feOffset/>
<feGaussianBlur stdDeviation="30.303"/>
<feComposite in2="hardAlpha" operator="out"/>
<feColorMatrix type="matrix" values="0 0 0 0 0.0666667 0 0 0 0 0.0666667 0 0 0 0 0.0666667 0 0 0 0.2 0"/>
<feBlend mode="normal" in2="BackgroundImageFix" result="effect1_dropShadow_1160_14986"/>
<feBlend mode="normal" in="SourceGraphic" in2="effect1_dropShadow_1160_14986" result="shape"/>
</filter>
<filter id="filter1_d_1160_14986" x="0.769669" y="0.618546" width="249.77" height="285.482" filterUnits="userSpaceOnUse" color-interpolation-filters="sRGB">
<feFlood flood-opacity="0" result="BackgroundImageFix"/>
<feColorMatrix in="SourceAlpha" type="matrix" values="0 0 0 0 0 0 0 0 0 0 0 0 0 0 0 0 0 0 127 0" result="hardAlpha"/>
<feOffset/>
<feGaussianBlur stdDeviation="30.303"/>
<feComposite in2="hardAlpha" operator="out"/>
<feColorMatrix type="matrix" values="0 0 0 0 0.0666667 0 0 0 0 0.0666667 0 0 0 0 0.0666667 0 0 0 0.2 0"/>
<feBlend mode="normal" in2="BackgroundImageFix" result="effect1_dropShadow_1160_14986"/>
<feBlend mode="normal" in="SourceGraphic" in2="effect1_dropShadow_1160_14986" result="shape"/>
</filter>
</defs>
</svg>
