<svg width="31" height="47" viewBox="0 0 31 47" fill="none" xmlns="http://www.w3.org/2000/svg">
<path d="M10.8333 10.3333H20.1667M10.8333 36V45.3333L15.5 43L20.1667 45.3333V36M10.8333 38.3333H6.16667C4.92899 38.3333 3.742 37.8417 2.86683 36.9665C1.99167 36.0913 1.5 34.9043 1.5 33.6667V5.66667C1.5 4.42899 1.99167 3.242 2.86683 2.36683C3.742 1.49167 4.92899 1 6.16667 1H24.8333C26.071 1 27.258 1.49167 28.1332 2.36683C29.0083 3.242 29.5 4.42899 29.5 5.66667V33.6667C29.5 34.9043 29.0083 36.0913 28.1332 36.9665C27.258 37.8417 26.071 38.3333 24.8333 38.3333H20.1667M8.5 29C8.5 30.8565 9.2375 32.637 10.5503 33.9497C11.863 35.2625 13.6435 36 15.5 36C17.3565 36 19.137 35.2625 20.4497 33.9497C21.7625 32.637 22.5 30.8565 22.5 29C22.5 27.1435 21.7625 25.363 20.4497 24.0503C19.137 22.7375 17.3565 22 15.5 22C13.6435 22 11.863 22.7375 10.5503 24.0503C9.2375 25.363 8.5 27.1435 8.5 29Z" stroke="white" stroke-width="2" stroke-linecap="round" stroke-linejoin="round"/>
</svg>
