<svg width="44" height="44" viewBox="0 0 44 44" fill="none" xmlns="http://www.w3.org/2000/svg">
<path d="M17.3333 19.6667V15C17.3333 13.7623 17.825 12.5753 18.7002 11.7002C19.5753 10.825 20.7623 10.3333 22 10.3333C23.2377 10.3333 24.4247 10.825 25.2998 11.7002C26.175 12.5753 26.6667 13.7623 26.6667 15V19.6667M22 1C38.8 1 43 5.2 43 22C43 38.8 38.8 43 22 43C5.2 43 1 38.8 1 22C1 5.2 5.2 1 22 1ZM12.6667 22C12.6667 21.3812 12.9125 20.7877 13.3501 20.3501C13.7877 19.9125 14.3812 19.6667 15 19.6667H29C29.6188 19.6667 30.2123 19.9125 30.6499 20.3501C31.0875 20.7877 31.3333 21.3812 31.3333 22V29C31.3333 29.6188 31.0875 30.2123 30.6499 30.6499C30.2123 31.0875 29.6188 31.3333 29 31.3333H15C14.3812 31.3333 13.7877 31.0875 13.3501 30.6499C12.9125 30.2123 12.6667 29.6188 12.6667 29V22Z" stroke="white" stroke-width="1.5" stroke-linecap="round" stroke-linejoin="round"/>
</svg>
