<svg width="142" height="40" viewBox="0 0 142 40" fill="none" xmlns="http://www.w3.org/2000/svg">
<rect width="140.737" height="39.9997" transform="translate(0.631348)" fill="white" fill-opacity="0.01"/>
<path d="M49.3018 5.24956C49.3018 2.35031 51.6521 0 54.5513 0H87.4486C90.3478 0 92.6981 2.35031 92.6981 5.24956V21.6982C92.6981 24.5974 90.3478 26.9477 87.4486 26.9477H54.5513C51.6521 26.9477 49.3018 24.5974 49.3018 21.6982V5.24956Z" fill="#FA4F19"/>
<path fill-rule="evenodd" clip-rule="evenodd" d="M54.0264 5.07451C54.0264 4.39801 54.5748 3.84961 55.2513 3.84961H67.6752C69.5114 3.84961 70.9999 5.33814 70.9999 7.17433V11.549C70.9999 12.2255 70.4515 12.7739 69.775 12.7739C69.0986 12.7739 68.5501 12.2255 68.5501 11.549V7.17433C68.5501 6.69112 68.1584 6.2994 67.6752 6.2994H55.2513C54.5748 6.2994 54.0264 5.751 54.0264 5.07451Z" fill="#1A1A1C"/>
<path fill-rule="evenodd" clip-rule="evenodd" d="M74.8319 10.3236C75.1035 10.3236 75.371 10.2573 75.6112 10.1304L87.2259 3.99116C87.824 3.67503 88.5651 3.9036 88.8812 4.50168C89.1973 5.09976 88.9688 5.84088 88.3707 6.15701L76.756 12.2962C76.1631 12.6096 75.5026 12.7734 74.8319 12.7734C73.2953 12.7734 72.0496 11.5278 72.0496 9.99112V5.07408C72.0496 4.39759 72.598 3.84919 73.2745 3.84919C73.951 3.84919 74.4994 4.39759 74.4994 5.07408V9.99112C74.4994 10.1748 74.6483 10.3236 74.8319 10.3236Z" fill="#1A1A1C"/>
<path fill-rule="evenodd" clip-rule="evenodd" d="M74.8959 16.274C75.1255 16.274 75.3516 16.3301 75.5547 16.4374L87.2259 22.6065C87.824 22.9226 88.5651 22.6941 88.8812 22.096C89.1973 21.4979 88.9688 20.7568 88.3707 20.4406L76.6995 14.2716C76.1437 13.9778 75.5245 13.8242 74.8959 13.8242C73.3239 13.8242 72.0496 15.0985 72.0496 16.6705V21.5236C72.0496 22.2001 72.598 22.7485 73.2745 22.7485C73.951 22.7485 74.4994 22.2001 74.4994 21.5236V16.6705C74.4994 16.4515 74.6769 16.274 74.8959 16.274Z" fill="#1A1A1C"/>
<path fill-rule="evenodd" clip-rule="evenodd" d="M54.0264 21.5231C54.0264 22.1996 54.5748 22.748 55.2513 22.748H67.6752C69.5114 22.748 70.9999 21.2595 70.9999 19.4233V15.0487C70.9999 14.3722 70.4515 13.8238 69.775 13.8238C69.0986 13.8238 68.5501 14.3722 68.5501 15.0487V19.4233C68.5501 19.9065 68.1584 20.2983 67.6752 20.2983H55.2513C54.5748 20.2983 54.0264 20.8467 54.0264 21.5231Z" fill="#1A1A1C"/>
<path fill-rule="evenodd" clip-rule="evenodd" d="M57.7009 13.2985C57.7009 13.975 58.2493 14.5234 58.9258 14.5234H66.1002C66.7767 14.5234 67.3251 13.975 67.3251 13.2985C67.3251 12.622 66.7767 12.0736 66.1002 12.0736H58.9258C58.2493 12.0736 57.7009 12.622 57.7009 13.2985Z" fill="#1A1A1C"/>
<path d="M10.839 34.1389C10.8227 34.4889 10.6965 34.7942 10.4604 35.0547C10.6965 35.3152 10.8227 35.6204 10.839 35.9704V38.4979C10.8145 38.8805 10.668 39.2102 10.3994 39.4869C10.1308 39.7556 9.80517 39.898 9.42259 39.9143C8.19345 39.9713 6.97651 39.9998 5.77178 39.9998C4.54264 39.9998 3.31349 39.9713 2.08435 39.9143C1.70176 39.898 1.37209 39.7556 1.09533 39.4869C0.826709 39.2102 0.684258 38.8805 0.667978 38.4979C0.651698 38.2456 0.639488 37.981 0.631348 37.7043H1.63257C1.64071 37.9566 1.65292 38.2049 1.6692 38.4491C1.67734 38.5712 1.72211 38.677 1.80351 38.7665C1.89305 38.8561 2.00294 38.9049 2.13319 38.9131C3.34605 38.97 4.55892 38.9985 5.77178 38.9985C6.96023 38.9985 8.16089 38.97 9.37375 38.9131C9.49585 38.9049 9.60167 38.8561 9.69121 38.7665C9.78075 38.677 9.82959 38.5712 9.83773 38.4491V36.0193C9.82959 35.889 9.78075 35.7832 9.69121 35.7018C9.60167 35.6123 9.49585 35.5634 9.37375 35.5553L3.92806 35.5675V34.5541H9.37375C9.49585 34.5459 9.60167 34.4971 9.69121 34.4075C9.78075 34.318 9.82959 34.2122 9.83773 34.0901V32.6859C9.82959 32.5638 9.78075 32.458 9.69121 32.3685C9.60167 32.2789 9.49585 32.2342 9.37375 32.2342C8.16089 32.1772 6.96023 32.1487 5.77178 32.1487C4.55892 32.1487 3.34605 32.1772 2.13319 32.2342C2.00294 32.2342 1.89305 32.2789 1.80351 32.3685C1.72211 32.458 1.67734 32.5638 1.6692 32.6859C1.65292 32.9383 1.64071 33.1865 1.63257 33.4307H0.631348C0.639488 33.1621 0.651698 32.8976 0.667978 32.6371C0.684258 32.2545 0.826709 31.9289 1.09533 31.6603C1.37209 31.3917 1.70176 31.2492 2.08435 31.2329C3.31349 31.176 4.54264 31.1475 5.77178 31.1475C6.97651 31.1475 8.19345 31.176 9.42259 31.2329C9.80517 31.2492 10.1308 31.3917 10.3994 31.6603C10.668 31.9289 10.8145 32.2545 10.839 32.6371V34.1389Z" fill="white"/>
<path d="M22.9151 32.6371C23.0209 34.5907 23.025 36.5443 22.9273 38.4979C22.9029 38.8805 22.7523 39.2102 22.4755 39.4869C22.2069 39.7556 21.8813 39.898 21.4987 39.9143C20.2696 39.9713 19.0404 39.9998 17.8113 39.9998C16.5821 39.9998 15.353 39.9713 14.1238 39.9143C13.7413 39.898 13.4116 39.7556 13.1348 39.4869C12.8662 39.2102 12.7238 38.8805 12.7075 38.4979C12.6098 36.5443 12.6098 34.5907 12.7075 32.6371C12.7156 32.4906 12.7441 32.3481 12.7929 32.2097C12.8499 32.0632 12.9191 31.933 13.0005 31.819C13.0901 31.7051 13.1918 31.6074 13.3058 31.526C13.4197 31.4364 13.5459 31.3672 13.6843 31.3184C13.8308 31.2614 13.9773 31.2329 14.1238 31.2329C15.353 31.176 16.5821 31.1475 17.8113 31.1475C19.0404 31.1475 20.2696 31.176 21.4987 31.2329C21.8813 31.2492 22.2069 31.3917 22.4755 31.6603C22.7523 31.9289 22.8988 32.2545 22.9151 32.6371ZM21.9139 38.4491C22.0115 36.528 22.0115 34.607 21.9139 32.6859C21.9139 32.5638 21.8691 32.458 21.7796 32.3685C21.69 32.2789 21.5842 32.2342 21.4621 32.2342C20.2411 32.1772 19.0242 32.1487 17.8113 32.1487C16.5984 32.1487 15.3856 32.1772 14.1727 32.2342C14.0506 32.2342 13.9448 32.2789 13.8552 32.3685C13.7657 32.458 13.7168 32.5638 13.7087 32.6859C13.611 34.607 13.611 36.528 13.7087 38.4491C13.7168 38.5712 13.7657 38.677 13.8552 38.7665C13.9448 38.8561 14.0506 38.9049 14.1727 38.9131C15.3856 38.97 16.5984 38.9985 17.8113 38.9985C19.0323 38.9985 20.2492 38.97 21.4621 38.9131C21.5842 38.9049 21.69 38.8561 21.7796 38.7665C21.8691 38.677 21.9139 38.5712 21.9139 38.4491Z" fill="white"/>
<path d="M33.9056 31.294H34.9068V39.841H33.9056V36.0681H25.8591V39.841H24.8579V31.294H25.8591V35.0669H33.9056V31.294Z" fill="white"/>
<path d="M42.1772 31.294L46.0967 39.841H44.9855L44.143 37.9973H38.0014L37.1589 39.841H36.0478L39.9672 31.294H42.1772ZM38.4654 36.9961H43.6791L41.5301 32.3074H40.6143L38.4654 36.9961Z" fill="white"/>
<path d="M62.6897 31.294L56.4138 35.5675L62.6897 39.841H60.9071L55.3637 36.0681H53.6421V39.841H52.6409V31.3062H53.6421V35.0669H55.3637L60.8949 31.3062L62.6897 31.294Z" fill="white"/>
<path d="M73.6751 32.6371C73.7809 34.5907 73.785 36.5443 73.6873 38.4979C73.6629 38.8805 73.5123 39.2102 73.2355 39.4869C72.9669 39.7556 72.6413 39.898 72.2587 39.9143C71.0296 39.9713 69.8004 39.9998 68.5713 39.9998C67.3421 39.9998 66.113 39.9713 64.8838 39.9143C64.5013 39.898 64.1716 39.7556 63.8948 39.4869C63.6262 39.2102 63.4837 38.8805 63.4675 38.4979C63.3698 36.5443 63.3698 34.5907 63.4675 32.6371C63.4756 32.4906 63.5041 32.3481 63.5529 32.2097C63.6099 32.0632 63.6791 31.933 63.7605 31.819C63.8501 31.7051 63.9518 31.6074 64.0658 31.526C64.1797 31.4364 64.3059 31.3672 64.4443 31.3184C64.5908 31.2614 64.7373 31.2329 64.8838 31.2329C66.113 31.176 67.3421 31.1475 68.5713 31.1475C69.8004 31.1475 71.0296 31.176 72.2587 31.2329C72.6413 31.2492 72.9669 31.3917 73.2355 31.6603C73.5123 31.9289 73.6588 32.2545 73.6751 32.6371ZM72.6739 38.4491C72.7715 36.528 72.7715 34.607 72.6739 32.6859C72.6739 32.5638 72.6291 32.458 72.5395 32.3685C72.45 32.2789 72.3442 32.2342 72.2221 32.2342C71.0011 32.1772 69.7841 32.1487 68.5713 32.1487C67.3584 32.1487 66.1455 32.1772 64.9327 32.2342C64.8106 32.2342 64.7048 32.2789 64.6152 32.3685C64.5257 32.458 64.4768 32.5638 64.4687 32.6859C64.371 34.607 64.371 36.528 64.4687 38.4491C64.4768 38.5712 64.5257 38.677 64.6152 38.7665C64.7048 38.8561 64.8106 38.9049 64.9327 38.9131C66.1455 38.97 67.3584 38.9985 68.5713 38.9985C69.7923 38.9985 71.0092 38.97 72.2221 38.9131C72.3442 38.9049 72.45 38.8561 72.5395 38.7665C72.6291 38.677 72.6739 38.5712 72.6739 38.4491Z" fill="white"/>
<path d="M85.1418 31.294H86.9244V39.841H85.911V32.3074H85.7401L81.7718 39.841H80.7706L76.7901 32.3074H76.6191V39.841H75.6179V31.294H77.4006L81.2712 38.6322L85.1418 31.3062V31.294Z" fill="white"/>
<path d="M98.3773 31.9289C98.7599 31.9452 99.0855 32.0917 99.3541 32.3685C99.6227 32.6371 99.7692 32.9627 99.7936 33.3453V35.7995C99.7774 36.0518 99.7041 36.2838 99.5739 36.4955C99.4518 36.7071 99.2849 36.878 99.0732 37.0083C98.8616 37.1385 98.6296 37.2077 98.3773 37.2159H94.641V39.841H93.6398V37.2159H89.9035C89.5209 37.1996 89.1912 37.0571 88.9145 36.7885C88.6459 36.5117 88.5034 36.1821 88.4871 35.7995V33.3453C88.5034 32.9627 88.6459 32.6371 88.9145 32.3685C89.1912 32.0917 89.5209 31.9452 89.9035 31.9289H93.6398V31.294H94.641V31.9289H98.3773ZM89.9523 36.2146H93.6398V32.9423L89.9523 32.9301C89.8302 32.9383 89.7244 32.9871 89.6349 33.0767C89.5453 33.1581 89.4965 33.2639 89.4883 33.3941V35.7507C89.4965 35.8728 89.5453 35.9786 89.6349 36.0681C89.7244 36.1577 89.8302 36.2065 89.9523 36.2146ZM98.7802 35.7507L98.7924 33.3941C98.7843 33.2639 98.7354 33.1581 98.6459 33.0767C98.5564 32.9871 98.4505 32.9383 98.3284 32.9301L94.641 32.9423V36.2146H98.3284C98.4505 36.2065 98.5564 36.1577 98.6459 36.0681C98.7354 35.9786 98.7802 35.8728 98.7802 35.7507Z" fill="white"/>
<path d="M111.569 32.6371C111.675 34.5907 111.679 36.5443 111.581 38.4979C111.557 38.8805 111.406 39.2102 111.13 39.4869C110.861 39.7556 110.535 39.898 110.153 39.9143C108.924 39.9713 107.695 39.9998 106.465 39.9998C105.236 39.9998 104.007 39.9713 102.778 39.9143C102.395 39.898 102.066 39.7556 101.789 39.4869C101.52 39.2102 101.378 38.8805 101.362 38.4979C101.264 36.5443 101.264 34.5907 101.362 32.6371C101.37 32.4906 101.398 32.3481 101.447 32.2097C101.504 32.0632 101.573 31.933 101.655 31.819C101.744 31.7051 101.846 31.6074 101.96 31.526C102.074 31.4364 102.2 31.3672 102.338 31.3184C102.485 31.2614 102.631 31.2329 102.778 31.2329C104.007 31.176 105.236 31.1475 106.465 31.1475C107.695 31.1475 108.924 31.176 110.153 31.2329C110.535 31.2492 110.861 31.3917 111.13 31.6603C111.406 31.9289 111.553 32.2545 111.569 32.6371ZM110.568 38.4491C110.666 36.528 110.666 34.607 110.568 32.6859C110.568 32.5638 110.523 32.458 110.434 32.3685C110.344 32.2789 110.238 32.2342 110.116 32.2342C108.895 32.1772 107.678 32.1487 106.465 32.1487C105.253 32.1487 104.04 32.1772 102.827 32.2342C102.705 32.2342 102.599 32.2789 102.509 32.3685C102.42 32.458 102.371 32.5638 102.363 32.6859C102.265 34.607 102.265 36.528 102.363 38.4491C102.371 38.5712 102.42 38.677 102.509 38.7665C102.599 38.8561 102.705 38.9049 102.827 38.9131C104.04 38.97 105.253 38.9985 106.465 38.9985C107.686 38.9985 108.903 38.97 110.116 38.9131C110.238 38.9049 110.344 38.8561 110.434 38.7665C110.523 38.677 110.568 38.5712 110.568 38.4491Z" fill="white"/>
<path d="M123.501 32.7226V35.1768C123.485 35.5594 123.338 35.885 123.062 36.1536C122.793 36.4222 122.467 36.5687 122.085 36.5931H114.454V39.841H113.452V31.294H122.085C122.467 31.3184 122.793 31.469 123.062 31.7458C123.338 32.0144 123.485 32.34 123.501 32.7226ZM122.036 35.5797C122.158 35.5797 122.264 35.5349 122.354 35.4454C122.443 35.3559 122.492 35.25 122.5 35.1279V32.7592C122.492 32.6371 122.443 32.5313 122.354 32.4417C122.264 32.3522 122.158 32.3074 122.036 32.3074H114.454V35.5675L122.036 35.5797Z" fill="white"/>
<path d="M124.261 31.294H132.295V32.3074H128.779V39.841H127.777V32.3074H124.261V31.294Z" fill="white"/>
<path d="M137.449 31.294L141.369 39.841H140.257L139.415 37.9973H133.273L132.431 39.841H131.32L135.239 31.294H137.449ZM133.737 36.9961H138.951L136.802 32.3074H135.886L133.737 36.9961Z" fill="white"/>
</svg>
