<svg width="152" height="30" viewBox="0 0 152 30" fill="none" xmlns="http://www.w3.org/2000/svg">
<rect width="151.554" height="29.8702" transform="translate(0 0.0644531)" fill="white" fill-opacity="0.01"/>
<path d="M0 5.88332C0 2.66965 2.60519 0.0644531 5.81886 0.0644531H42.2837C45.4974 0.0644531 48.1026 2.66965 48.1026 5.88332V24.1158C48.1026 27.3294 45.4974 29.9346 42.2837 29.9346H5.81886C2.60519 29.9346 0 27.3294 0 24.1158V5.88332Z" fill="#FA4F19"/>
<path fill-rule="evenodd" clip-rule="evenodd" d="M5.23706 5.68977C5.23706 4.93991 5.84494 4.33203 6.5948 4.33203H20.3661C22.4014 4.33203 24.0514 5.98199 24.0514 8.01731V12.8664C24.0514 13.6162 23.4435 14.2241 22.6937 14.2241C21.9438 14.2241 21.3359 13.6162 21.3359 12.8664V8.01731C21.3359 7.4817 20.9017 7.0475 20.3661 7.0475H6.5948C5.84494 7.0475 5.23706 6.43962 5.23706 5.68977Z" fill="white"/>
<path fill-rule="evenodd" clip-rule="evenodd" d="M28.2989 11.5091C28.5999 11.5091 28.8964 11.4356 29.1626 11.2949L42.0369 4.48991C42.6999 4.1395 43.5214 4.39285 43.8718 5.0558C44.2222 5.71874 43.9688 6.54023 43.3059 6.89064L30.4316 13.6956C29.7744 14.043 29.0422 14.2246 28.2989 14.2246C26.5956 14.2246 25.2148 12.8438 25.2148 11.1406V5.69028C25.2148 4.94042 25.8227 4.33254 26.5726 4.33254C27.3224 4.33254 27.9303 4.94042 27.9303 5.69028V11.1406C27.9303 11.3441 28.0953 11.5091 28.2989 11.5091Z" fill="white"/>
<path fill-rule="evenodd" clip-rule="evenodd" d="M28.3697 18.1022C28.6243 18.1022 28.8749 18.1644 29.1 18.2833L42.0369 25.1214C42.6999 25.4718 43.5214 25.2185 43.8718 24.5555C44.2222 23.8926 43.9688 23.0711 43.3059 22.7207L30.3689 15.8826C29.7529 15.5569 29.0666 15.3867 28.3697 15.3867C26.6273 15.3867 25.2148 16.7992 25.2148 18.5416V23.9211C25.2148 24.6709 25.8227 25.2788 26.5726 25.2788C27.3224 25.2788 27.9303 24.6709 27.9303 23.9211V18.5416C27.9303 18.2989 28.127 18.1022 28.3697 18.1022Z" fill="white"/>
<path fill-rule="evenodd" clip-rule="evenodd" d="M5.23706 23.9216C5.23706 24.6714 5.84494 25.2793 6.5948 25.2793H20.3661C22.4014 25.2793 24.0514 23.6293 24.0514 21.594V16.745C24.0514 15.9951 23.4435 15.3872 22.6937 15.3872C21.9438 15.3872 21.3359 15.9951 21.3359 16.745V21.594C21.3359 22.1296 20.9017 22.5638 20.3661 22.5638H6.5948C5.84494 22.5638 5.23706 23.1717 5.23706 23.9216Z" fill="white"/>
<path fill-rule="evenodd" clip-rule="evenodd" d="M9.3103 14.8063C9.3103 15.5562 9.91818 16.1641 10.668 16.1641H18.6205C19.3703 16.1641 19.9782 15.5562 19.9782 14.8063C19.9782 14.0565 19.3703 13.4486 18.6205 13.4486H10.668C9.91818 13.4486 9.3103 14.0565 9.3103 14.8063Z" fill="white"/>
<path d="M64.0723 7.00924C64.0543 7.39722 63.9144 7.73558 63.6527 8.02431C63.9144 8.31304 64.0543 8.65139 64.0723 9.03938V11.841C64.0452 12.265 63.8828 12.6305 63.5851 12.9372C63.2873 13.235 62.9264 13.3929 62.5023 13.4109C61.1399 13.4741 59.791 13.5057 58.4556 13.5057C57.0932 13.5057 55.7307 13.4741 54.3683 13.4109C53.9442 13.3929 53.5788 13.235 53.272 12.9372C52.9742 12.6305 52.8163 12.265 52.7983 11.841C52.7802 11.5613 52.7667 11.268 52.7577 10.9612H53.8675C53.8765 11.2409 53.8901 11.5161 53.9081 11.7868C53.9171 11.9222 53.9667 12.0395 54.057 12.1387C54.1562 12.238 54.278 12.2921 54.4224 12.3011C55.7668 12.3643 57.1112 12.3959 58.4556 12.3959C59.7729 12.3959 61.1038 12.3643 62.4482 12.3011C62.5835 12.2921 62.7008 12.238 62.8001 12.1387C62.8993 12.0395 62.9535 11.9222 62.9625 11.7868V9.09351C62.9535 8.94915 62.8993 8.83185 62.8001 8.74162C62.7008 8.64237 62.5835 8.58824 62.4482 8.57921L56.4119 8.59275V7.46941H62.4482C62.5835 7.46038 62.7008 7.40625 62.8001 7.307C62.8993 7.20774 62.9535 7.09045 62.9625 6.95511V5.39867C62.9535 5.26333 62.8993 5.14603 62.8001 5.04678C62.7008 4.94753 62.5835 4.8979 62.4482 4.8979C61.1038 4.83474 59.7729 4.80316 58.4556 4.80316C57.1112 4.80316 55.7668 4.83474 54.4224 4.8979C54.278 4.8979 54.1562 4.94753 54.057 5.04678C53.9667 5.14603 53.9171 5.26333 53.9081 5.39867C53.8901 5.67838 53.8765 5.95357 53.8675 6.22426H52.7577C52.7667 5.92651 52.7802 5.63326 52.7983 5.34453C52.8163 4.92046 52.9742 4.55955 53.272 4.2618C53.5788 3.96404 53.9442 3.80614 54.3683 3.7881C55.7307 3.72494 57.0932 3.69336 58.4556 3.69336C59.791 3.69336 61.1399 3.72494 62.5023 3.7881C62.9264 3.80614 63.2873 3.96404 63.5851 4.2618C63.8828 4.55955 64.0452 4.92046 64.0723 5.34453V7.00924Z" fill="#1A1A1C"/>
<path d="M77.4581 5.34453C77.5754 7.51001 77.5799 9.67548 77.4716 11.841C77.4445 12.265 77.2776 12.6305 76.9708 12.9372C76.6731 13.235 76.3122 13.3929 75.8881 13.4109C74.5257 13.4741 73.1632 13.5057 71.8008 13.5057C70.4383 13.5057 69.0759 13.4741 67.7134 13.4109C67.2894 13.3929 66.9239 13.235 66.6172 12.9372C66.3194 12.6305 66.1615 12.265 66.1435 11.841C66.0352 9.67548 66.0352 7.51001 66.1435 5.34453C66.1525 5.18212 66.1841 5.02422 66.2382 4.87084C66.3014 4.70843 66.378 4.56406 66.4683 4.43774C66.5675 4.31142 66.6803 4.20315 66.8066 4.11292C66.933 4.01367 67.0728 3.93698 67.2262 3.88284C67.3886 3.81968 67.551 3.7881 67.7134 3.7881C69.0759 3.72494 70.4383 3.69336 71.8008 3.69336C73.1632 3.69336 74.5257 3.72494 75.8881 3.7881C76.3122 3.80614 76.6731 3.96404 76.9708 4.2618C77.2776 4.55955 77.44 4.92046 77.4581 5.34453ZM76.3483 11.7868C76.4565 9.65744 76.4565 7.52805 76.3483 5.39867C76.3483 5.26333 76.2986 5.14603 76.1994 5.04678C76.1001 4.94753 75.9828 4.8979 75.8475 4.8979C74.4941 4.83474 73.1452 4.80316 71.8008 4.80316C70.4564 4.80316 69.112 4.83474 67.7676 4.8979C67.6322 4.8979 67.5149 4.94753 67.4157 5.04678C67.3164 5.14603 67.2623 5.26333 67.2533 5.39867C67.145 7.52805 67.145 9.65744 67.2533 11.7868C67.2623 11.9222 67.3164 12.0395 67.4157 12.1387C67.5149 12.238 67.6322 12.2921 67.7676 12.3011C69.112 12.3643 70.4564 12.3959 71.8008 12.3959C73.1542 12.3959 74.5031 12.3643 75.8475 12.3011C75.9828 12.2921 76.1001 12.238 76.1994 12.1387C76.2986 12.0395 76.3483 11.9222 76.3483 11.7868Z" fill="#1A1A1C"/>
<path d="M89.6404 3.85577H90.7503V13.3297H89.6404V9.14765H80.7214V13.3297H79.6116V3.85577H80.7214V8.03784H89.6404V3.85577Z" fill="#1A1A1C"/>
<path d="M98.8091 3.85577L103.154 13.3297H101.922L100.988 11.2861H94.1804L93.2466 13.3297H92.015L96.3594 3.85577H98.8091ZM94.6947 10.1763H100.474L98.0918 4.97911H97.0768L94.6947 10.1763Z" fill="#1A1A1C"/>
<path d="M64.343 16.6573L57.3864 21.3942L64.343 26.1312H62.367L56.2225 21.9492H54.3141V26.1312H53.2043V16.6708H54.3141V20.8393H56.2225L62.3535 16.6708L64.343 16.6573Z" fill="#1A1A1C"/>
<path d="M76.5197 18.146C76.637 20.3115 76.6415 22.477 76.5332 24.6425C76.5061 25.0665 76.3392 25.432 76.0324 25.7387C75.7347 26.0365 75.3738 26.1944 74.9497 26.2124C73.5872 26.2756 72.2248 26.3072 70.8624 26.3072C69.4999 26.3072 68.1375 26.2756 66.775 26.2124C66.3509 26.1944 65.9855 26.0365 65.6787 25.7387C65.381 25.432 65.2231 25.0665 65.205 24.6425C65.0968 22.477 65.0968 20.3115 65.205 18.146C65.2141 17.9836 65.2457 17.8257 65.2998 17.6723C65.3629 17.5099 65.4396 17.3656 65.5299 17.2392C65.6291 17.1129 65.7419 17.0046 65.8682 16.9144C65.9945 16.8152 66.1344 16.7385 66.2878 16.6843C66.4502 16.6212 66.6126 16.5896 66.775 16.5896C68.1375 16.5264 69.4999 16.4949 70.8624 16.4949C72.2248 16.4949 73.5872 16.5264 74.9497 16.5896C75.3738 16.6076 75.7347 16.7655 76.0324 17.0633C76.3392 17.3611 76.5016 17.722 76.5197 18.146ZM75.4099 24.5883C75.5181 22.4589 75.5181 20.3296 75.4099 18.2002C75.4099 18.0648 75.3602 17.9475 75.261 17.8483C75.1617 17.749 75.0444 17.6994 74.9091 17.6994C73.5557 17.6362 72.2068 17.6047 70.8624 17.6047C69.518 17.6047 68.1736 17.6362 66.8292 17.6994C66.6938 17.6994 66.5765 17.749 66.4773 17.8483C66.378 17.9475 66.3239 18.0648 66.3149 18.2002C66.2066 20.3296 66.2066 22.4589 66.3149 24.5883C66.3239 24.7237 66.378 24.841 66.4773 24.9402C66.5765 25.0395 66.6938 25.0936 66.8292 25.1026C68.1736 25.1658 69.518 25.1974 70.8624 25.1974C72.2158 25.1974 73.5647 25.1658 74.9091 25.1026C75.0444 25.0936 75.1617 25.0395 75.261 24.9402C75.3602 24.841 75.4099 24.7237 75.4099 24.5883Z" fill="#1A1A1C"/>
<path d="M89.2299 16.6573H91.2059V26.1312H90.0825V17.7806H89.8931L85.4944 26.1312H84.3846L79.9725 17.7806H79.783V26.1312H78.6732V16.6573H80.6492L84.9395 24.7913L89.2299 16.6708V16.6573Z" fill="#1A1A1C"/>
<path d="M103.901 17.361C104.325 17.3791 104.686 17.5415 104.983 17.8483C105.281 18.146 105.444 18.5069 105.471 18.931V21.6514C105.453 21.9311 105.371 22.1883 105.227 22.4228C105.092 22.6574 104.907 22.8469 104.672 22.9913C104.438 23.1357 104.18 23.2123 103.901 23.2214H99.7593V26.1312H98.6495V23.2214H94.508C94.0839 23.2033 93.7185 23.0454 93.4117 22.7477C93.114 22.4409 92.9561 22.0755 92.938 21.6514V18.931C92.9561 18.5069 93.114 18.146 93.4117 17.8483C93.7185 17.5415 94.0839 17.3791 94.508 17.361H98.6495V16.6573H99.7593V17.361H103.901ZM94.5621 22.1116H98.6495V18.4844L94.5621 18.4709C94.4268 18.4799 94.3095 18.534 94.2103 18.6333C94.111 18.7235 94.0569 18.8408 94.0478 18.9852V21.5973C94.0569 21.7326 94.111 21.8499 94.2103 21.9492C94.3095 22.0484 94.4268 22.1025 94.5621 22.1116ZM104.347 21.5973L104.361 18.9852C104.352 18.8408 104.298 18.7235 104.199 18.6333C104.099 18.534 103.982 18.4799 103.847 18.4709L99.7593 18.4844V22.1116H103.847C103.982 22.1025 104.099 22.0484 104.199 21.9492C104.298 21.8499 104.347 21.7326 104.347 21.5973Z" fill="#1A1A1C"/>
<path d="M118.523 18.146C118.641 20.3115 118.645 22.477 118.537 24.6425C118.51 25.0665 118.343 25.432 118.036 25.7387C117.738 26.0365 117.377 26.1944 116.953 26.2124C115.591 26.2756 114.228 26.3072 112.866 26.3072C111.504 26.3072 110.141 26.2756 108.779 26.2124C108.355 26.1944 107.989 26.0365 107.682 25.7387C107.385 25.432 107.227 25.0665 107.209 24.6425C107.1 22.477 107.1 20.3115 107.209 18.146C107.218 17.9836 107.249 17.8257 107.303 17.6723C107.367 17.5099 107.443 17.3656 107.534 17.2392C107.633 17.1129 107.746 17.0046 107.872 16.9144C107.998 16.8152 108.138 16.7385 108.291 16.6843C108.454 16.6212 108.616 16.5896 108.779 16.5896C110.141 16.5264 111.504 16.4949 112.866 16.4949C114.228 16.4949 115.591 16.5264 116.953 16.5896C117.377 16.6076 117.738 16.7655 118.036 17.0633C118.343 17.3611 118.505 17.722 118.523 18.146ZM117.414 24.5883C117.522 22.4589 117.522 20.3296 117.414 18.2002C117.414 18.0648 117.364 17.9475 117.265 17.8483C117.165 17.749 117.048 17.6994 116.913 17.6994C115.559 17.6362 114.21 17.6047 112.866 17.6047C111.522 17.6047 110.177 17.6362 108.833 17.6994C108.697 17.6994 108.58 17.749 108.481 17.8483C108.382 17.9475 108.328 18.0648 108.319 18.2002C108.21 20.3296 108.21 22.4589 108.319 24.5883C108.328 24.7237 108.382 24.841 108.481 24.9402C108.58 25.0395 108.697 25.0936 108.833 25.1026C110.177 25.1658 111.522 25.1974 112.866 25.1974C114.219 25.1974 115.568 25.1658 116.913 25.1026C117.048 25.0936 117.165 25.0395 117.265 24.9402C117.364 24.841 117.414 24.7237 117.414 24.5883Z" fill="#1A1A1C"/>
<path d="M131.749 18.2408V20.9612C131.731 21.3852 131.569 21.7461 131.262 22.0439C130.964 22.3416 130.604 22.5041 130.179 22.5311H121.721V26.1312H120.611V16.6573H130.179C130.604 16.6843 130.964 16.8513 131.262 17.158C131.569 17.4558 131.731 17.8167 131.749 18.2408ZM130.125 21.4078C130.261 21.4078 130.378 21.3582 130.477 21.2589C130.576 21.1597 130.631 21.0424 130.64 20.907V18.2814C130.631 18.146 130.576 18.0287 130.477 17.9295C130.378 17.8302 130.261 17.7806 130.125 17.7806H121.721V21.3942L130.125 21.4078Z" fill="#1A1A1C"/>
<path d="M132.592 16.6573H141.497V17.7806H137.599V26.1312H136.489V17.7806H132.592V16.6573Z" fill="#1A1A1C"/>
<path d="M147.21 16.6573L151.554 26.1312H150.323L149.389 24.0876H142.581L141.647 26.1312H140.416L144.76 16.6573H147.21ZM143.095 22.9778H148.875L146.493 17.7806H145.477L143.095 22.9778Z" fill="#1A1A1C"/>
<path d="M64.0723 7.00924C64.0543 7.39722 63.9144 7.73558 63.6527 8.02431C63.9144 8.31304 64.0543 8.65139 64.0723 9.03938V11.841C64.0452 12.265 63.8828 12.6305 63.5851 12.9372C63.2873 13.235 62.9264 13.3929 62.5023 13.4109C61.1399 13.4741 59.791 13.5057 58.4556 13.5057C57.0932 13.5057 55.7307 13.4741 54.3683 13.4109C53.9442 13.3929 53.5788 13.235 53.272 12.9372C52.9742 12.6305 52.8163 12.265 52.7983 11.841C52.7802 11.5613 52.7667 11.268 52.7577 10.9612H53.8675C53.8765 11.2409 53.8901 11.5161 53.9081 11.7868C53.9171 11.9222 53.9667 12.0395 54.057 12.1387C54.1562 12.238 54.278 12.2921 54.4224 12.3011C55.7668 12.3643 57.1112 12.3959 58.4556 12.3959C59.7729 12.3959 61.1038 12.3643 62.4482 12.3011C62.5835 12.2921 62.7008 12.238 62.8001 12.1387C62.8993 12.0395 62.9535 11.9222 62.9625 11.7868V9.09351C62.9535 8.94915 62.8993 8.83185 62.8001 8.74162C62.7008 8.64237 62.5835 8.58824 62.4482 8.57921L56.4119 8.59275V7.46941H62.4482C62.5835 7.46038 62.7008 7.40625 62.8001 7.307C62.8993 7.20774 62.9535 7.09045 62.9625 6.95511V5.39867C62.9535 5.26333 62.8993 5.14603 62.8001 5.04678C62.7008 4.94753 62.5835 4.8979 62.4482 4.8979C61.1038 4.83474 59.7729 4.80316 58.4556 4.80316C57.1112 4.80316 55.7668 4.83474 54.4224 4.8979C54.278 4.8979 54.1562 4.94753 54.057 5.04678C53.9667 5.14603 53.9171 5.26333 53.9081 5.39867C53.8901 5.67838 53.8765 5.95357 53.8675 6.22426H52.7577C52.7667 5.92651 52.7802 5.63326 52.7983 5.34453C52.8163 4.92046 52.9742 4.55955 53.272 4.2618C53.5788 3.96404 53.9442 3.80614 54.3683 3.7881C55.7307 3.72494 57.0932 3.69336 58.4556 3.69336C59.791 3.69336 61.1399 3.72494 62.5023 3.7881C62.9264 3.80614 63.2873 3.96404 63.5851 4.2618C63.8828 4.55955 64.0452 4.92046 64.0723 5.34453V7.00924Z" stroke="#1A1A1C" stroke-width="0.238839"/>
<path d="M77.4581 5.34453C77.5754 7.51001 77.5799 9.67548 77.4716 11.841C77.4445 12.265 77.2776 12.6305 76.9708 12.9372C76.6731 13.235 76.3122 13.3929 75.8881 13.4109C74.5257 13.4741 73.1632 13.5057 71.8008 13.5057C70.4383 13.5057 69.0759 13.4741 67.7134 13.4109C67.2894 13.3929 66.9239 13.235 66.6172 12.9372C66.3194 12.6305 66.1615 12.265 66.1435 11.841C66.0352 9.67548 66.0352 7.51001 66.1435 5.34453C66.1525 5.18212 66.1841 5.02422 66.2382 4.87084C66.3014 4.70843 66.378 4.56406 66.4683 4.43774C66.5675 4.31142 66.6803 4.20315 66.8066 4.11292C66.933 4.01367 67.0728 3.93698 67.2262 3.88284C67.3886 3.81968 67.551 3.7881 67.7134 3.7881C69.0759 3.72494 70.4383 3.69336 71.8008 3.69336C73.1632 3.69336 74.5257 3.72494 75.8881 3.7881C76.3122 3.80614 76.6731 3.96404 76.9708 4.2618C77.2776 4.55955 77.44 4.92046 77.4581 5.34453ZM76.3483 11.7868C76.4565 9.65744 76.4565 7.52805 76.3483 5.39867C76.3483 5.26333 76.2986 5.14603 76.1994 5.04678C76.1001 4.94753 75.9828 4.8979 75.8475 4.8979C74.4941 4.83474 73.1452 4.80316 71.8008 4.80316C70.4564 4.80316 69.112 4.83474 67.7676 4.8979C67.6322 4.8979 67.5149 4.94753 67.4157 5.04678C67.3164 5.14603 67.2623 5.26333 67.2533 5.39867C67.145 7.52805 67.145 9.65744 67.2533 11.7868C67.2623 11.9222 67.3164 12.0395 67.4157 12.1387C67.5149 12.238 67.6322 12.2921 67.7676 12.3011C69.112 12.3643 70.4564 12.3959 71.8008 12.3959C73.1542 12.3959 74.5031 12.3643 75.8475 12.3011C75.9828 12.2921 76.1001 12.238 76.1994 12.1387C76.2986 12.0395 76.3483 11.9222 76.3483 11.7868Z" stroke="#1A1A1C" stroke-width="0.238839"/>
<path d="M89.6404 3.85577H90.7503V13.3297H89.6404V9.14765H80.7214V13.3297H79.6116V3.85577H80.7214V8.03784H89.6404V3.85577Z" stroke="#1A1A1C" stroke-width="0.238839"/>
<path d="M98.8091 3.85577L103.154 13.3297H101.922L100.988 11.2861H94.1804L93.2466 13.3297H92.015L96.3594 3.85577H98.8091ZM94.6947 10.1763H100.474L98.0918 4.97911H97.0768L94.6947 10.1763Z" stroke="#1A1A1C" stroke-width="0.238839"/>
<path d="M64.343 16.6573L57.3864 21.3942L64.343 26.1312H62.367L56.2225 21.9492H54.3141V26.1312H53.2043V16.6708H54.3141V20.8393H56.2225L62.3535 16.6708L64.343 16.6573Z" stroke="#1A1A1C" stroke-width="0.238839"/>
<path d="M76.5197 18.146C76.637 20.3115 76.6415 22.477 76.5332 24.6425C76.5061 25.0665 76.3392 25.432 76.0324 25.7387C75.7347 26.0365 75.3738 26.1944 74.9497 26.2124C73.5872 26.2756 72.2248 26.3072 70.8624 26.3072C69.4999 26.3072 68.1375 26.2756 66.775 26.2124C66.3509 26.1944 65.9855 26.0365 65.6787 25.7387C65.381 25.432 65.2231 25.0665 65.205 24.6425C65.0968 22.477 65.0968 20.3115 65.205 18.146C65.2141 17.9836 65.2457 17.8257 65.2998 17.6723C65.3629 17.5099 65.4396 17.3656 65.5299 17.2392C65.6291 17.1129 65.7419 17.0046 65.8682 16.9144C65.9945 16.8152 66.1344 16.7385 66.2878 16.6843C66.4502 16.6212 66.6126 16.5896 66.775 16.5896C68.1375 16.5264 69.4999 16.4949 70.8624 16.4949C72.2248 16.4949 73.5872 16.5264 74.9497 16.5896C75.3738 16.6076 75.7347 16.7655 76.0324 17.0633C76.3392 17.3611 76.5016 17.722 76.5197 18.146ZM75.4099 24.5883C75.5181 22.4589 75.5181 20.3296 75.4099 18.2002C75.4099 18.0648 75.3602 17.9475 75.261 17.8483C75.1617 17.749 75.0444 17.6994 74.9091 17.6994C73.5557 17.6362 72.2068 17.6047 70.8624 17.6047C69.518 17.6047 68.1736 17.6362 66.8292 17.6994C66.6938 17.6994 66.5765 17.749 66.4773 17.8483C66.378 17.9475 66.3239 18.0648 66.3149 18.2002C66.2066 20.3296 66.2066 22.4589 66.3149 24.5883C66.3239 24.7237 66.378 24.841 66.4773 24.9402C66.5765 25.0395 66.6938 25.0936 66.8292 25.1026C68.1736 25.1658 69.518 25.1974 70.8624 25.1974C72.2158 25.1974 73.5647 25.1658 74.9091 25.1026C75.0444 25.0936 75.1617 25.0395 75.261 24.9402C75.3602 24.841 75.4099 24.7237 75.4099 24.5883Z" stroke="#1A1A1C" stroke-width="0.238839"/>
<path d="M89.2299 16.6573H91.2059V26.1312H90.0825V17.7806H89.8931L85.4944 26.1312H84.3846L79.9725 17.7806H79.783V26.1312H78.6732V16.6573H80.6492L84.9395 24.7913L89.2299 16.6708V16.6573Z" stroke="#1A1A1C" stroke-width="0.238839"/>
<path d="M103.901 17.361C104.325 17.3791 104.686 17.5415 104.983 17.8483C105.281 18.146 105.444 18.5069 105.471 18.931V21.6514C105.453 21.9311 105.371 22.1883 105.227 22.4228C105.092 22.6574 104.907 22.8469 104.672 22.9913C104.438 23.1357 104.18 23.2123 103.901 23.2214H99.7593V26.1312H98.6495V23.2214H94.508C94.0839 23.2033 93.7185 23.0454 93.4117 22.7477C93.114 22.4409 92.9561 22.0755 92.938 21.6514V18.931C92.9561 18.5069 93.114 18.146 93.4117 17.8483C93.7185 17.5415 94.0839 17.3791 94.508 17.361H98.6495V16.6573H99.7593V17.361H103.901ZM94.5621 22.1116H98.6495V18.4844L94.5621 18.4709C94.4268 18.4799 94.3095 18.534 94.2103 18.6333C94.111 18.7235 94.0569 18.8408 94.0478 18.9852V21.5973C94.0569 21.7326 94.111 21.8499 94.2103 21.9492C94.3095 22.0484 94.4268 22.1025 94.5621 22.1116ZM104.347 21.5973L104.361 18.9852C104.352 18.8408 104.298 18.7235 104.199 18.6333C104.099 18.534 103.982 18.4799 103.847 18.4709L99.7593 18.4844V22.1116H103.847C103.982 22.1025 104.099 22.0484 104.199 21.9492C104.298 21.8499 104.347 21.7326 104.347 21.5973Z" stroke="#1A1A1C" stroke-width="0.238839"/>
<path d="M118.523 18.146C118.641 20.3115 118.645 22.477 118.537 24.6425C118.51 25.0665 118.343 25.432 118.036 25.7387C117.738 26.0365 117.377 26.1944 116.953 26.2124C115.591 26.2756 114.228 26.3072 112.866 26.3072C111.504 26.3072 110.141 26.2756 108.779 26.2124C108.355 26.1944 107.989 26.0365 107.682 25.7387C107.385 25.432 107.227 25.0665 107.209 24.6425C107.1 22.477 107.1 20.3115 107.209 18.146C107.218 17.9836 107.249 17.8257 107.303 17.6723C107.367 17.5099 107.443 17.3656 107.534 17.2392C107.633 17.1129 107.746 17.0046 107.872 16.9144C107.998 16.8152 108.138 16.7385 108.291 16.6843C108.454 16.6212 108.616 16.5896 108.779 16.5896C110.141 16.5264 111.504 16.4949 112.866 16.4949C114.228 16.4949 115.591 16.5264 116.953 16.5896C117.377 16.6076 117.738 16.7655 118.036 17.0633C118.343 17.3611 118.505 17.722 118.523 18.146ZM117.414 24.5883C117.522 22.4589 117.522 20.3296 117.414 18.2002C117.414 18.0648 117.364 17.9475 117.265 17.8483C117.165 17.749 117.048 17.6994 116.913 17.6994C115.559 17.6362 114.21 17.6047 112.866 17.6047C111.522 17.6047 110.177 17.6362 108.833 17.6994C108.697 17.6994 108.58 17.749 108.481 17.8483C108.382 17.9475 108.328 18.0648 108.319 18.2002C108.21 20.3296 108.21 22.4589 108.319 24.5883C108.328 24.7237 108.382 24.841 108.481 24.9402C108.58 25.0395 108.697 25.0936 108.833 25.1026C110.177 25.1658 111.522 25.1974 112.866 25.1974C114.219 25.1974 115.568 25.1658 116.913 25.1026C117.048 25.0936 117.165 25.0395 117.265 24.9402C117.364 24.841 117.414 24.7237 117.414 24.5883Z" stroke="#1A1A1C" stroke-width="0.238839"/>
<path d="M131.749 18.2408V20.9612C131.731 21.3852 131.569 21.7461 131.262 22.0439C130.964 22.3416 130.604 22.5041 130.179 22.5311H121.721V26.1312H120.611V16.6573H130.179C130.604 16.6843 130.964 16.8513 131.262 17.158C131.569 17.4558 131.731 17.8167 131.749 18.2408ZM130.125 21.4078C130.261 21.4078 130.378 21.3582 130.477 21.2589C130.576 21.1597 130.631 21.0424 130.64 20.907V18.2814C130.631 18.146 130.576 18.0287 130.477 17.9295C130.378 17.8302 130.261 17.7806 130.125 17.7806H121.721V21.3942L130.125 21.4078Z" stroke="#1A1A1C" stroke-width="0.238839"/>
<path d="M132.592 16.6573H141.497V17.7806H137.599V26.1312H136.489V17.7806H132.592V16.6573Z" stroke="#1A1A1C" stroke-width="0.238839"/>
<path d="M147.21 16.6573L151.554 26.1312H150.323L149.389 24.0876H142.581L141.647 26.1312H140.416L144.76 16.6573H147.21ZM143.095 22.9778H148.875L146.493 17.7806H145.477L143.095 22.9778Z" stroke="#1A1A1C" stroke-width="0.238839"/>
</svg>
