<svg width="405" height="77" viewBox="0 0 405 77" fill="none" xmlns="http://www.w3.org/2000/svg">
<path d="M2.65991 15C2.65991 6.71573 9.37564 0 17.6599 0H111.66C119.944 0 126.66 6.71573 126.66 15V62C126.66 70.2843 119.944 77 111.66 77H17.6599C9.37564 77 2.65991 70.2843 2.65991 62V15Z" fill="#FA4F19"/>
<path fill-rule="evenodd" clip-rule="evenodd" d="M16.1599 14.5C16.1599 12.567 17.7269 11 19.6599 11H55.1599C60.4066 11 64.6599 15.2533 64.6599 20.5V33C64.6599 34.933 63.0929 36.5 61.1599 36.5C59.2269 36.5 57.6599 34.933 57.6599 33V20.5C57.6599 19.1193 56.5406 18 55.1599 18H19.6599C17.7269 18 16.1599 16.433 16.1599 14.5Z" fill="#1A1A1C"/>
<path fill-rule="evenodd" clip-rule="evenodd" d="M75.6101 29.5C76.3862 29.5 77.1505 29.3104 77.8366 28.9478L111.024 11.4057C112.733 10.5024 114.851 11.1555 115.754 12.8644C116.658 14.5734 116.004 16.691 114.296 17.5943L81.1078 35.1364C79.4136 36.0319 77.5264 36.5 75.6101 36.5C71.2193 36.5 67.6599 32.9406 67.6599 28.5498V14.5C67.6599 12.567 69.2269 11 71.1599 11C73.0929 11 74.6599 12.567 74.6599 14.5V28.5498C74.6599 29.0746 75.0853 29.5 75.6101 29.5Z" fill="#1A1A1C"/>
<path fill-rule="evenodd" clip-rule="evenodd" d="M75.7927 46.5C76.4489 46.5 77.0951 46.6603 77.6752 46.9669L111.024 64.5943C112.733 65.4976 114.851 64.8445 115.754 63.1356C116.658 61.4266 116.004 59.309 114.296 58.4057L80.9463 40.7782C79.3582 39.9388 77.5891 39.5 75.7927 39.5C71.3011 39.5 67.6599 43.1412 67.6599 47.6328V61.5C67.6599 63.433 69.2269 65 71.1599 65C73.0929 65 74.6599 63.433 74.6599 61.5V47.6328C74.6599 47.0072 75.1671 46.5 75.7927 46.5Z" fill="#1A1A1C"/>
<path fill-rule="evenodd" clip-rule="evenodd" d="M16.1599 61.5C16.1599 63.433 17.7269 65 19.6599 65H55.1599C60.4066 65 64.6599 60.7467 64.6599 55.5V43C64.6599 41.067 63.0929 39.5 61.1599 39.5C59.2269 39.5 57.6599 41.067 57.6599 43V55.5C57.6599 56.8807 56.5406 58 55.1599 58H19.6599C17.7269 58 16.1599 59.567 16.1599 61.5Z" fill="#1A1A1C"/>
<path fill-rule="evenodd" clip-rule="evenodd" d="M26.6599 38C26.6599 39.933 28.2269 41.5 30.1599 41.5H50.6599C52.5929 41.5 54.1599 39.933 54.1599 38C54.1599 36.067 52.5929 34.5 50.6599 34.5H30.1599C28.2269 34.5 26.6599 36.067 26.6599 38Z" fill="#1A1A1C"/>
<path d="M176.827 20.4005C176.78 21.4007 176.42 22.2729 175.745 23.0172C176.42 23.7615 176.78 24.6337 176.827 25.6339V32.8559C176.757 33.949 176.339 34.891 175.571 35.6818C174.803 36.4494 173.873 36.8564 172.78 36.903C169.268 37.0658 165.79 37.1472 162.348 37.1472C158.836 37.1472 155.324 37.0658 151.812 36.903C150.718 36.8564 149.777 36.4494 148.986 35.6818C148.218 34.891 147.811 33.949 147.765 32.8559C147.718 32.1348 147.683 31.3789 147.66 30.5881H150.521C150.544 31.3091 150.579 32.0185 150.625 32.7163C150.649 33.0652 150.777 33.3676 151.009 33.6234C151.265 33.8793 151.579 34.0188 151.951 34.0421C155.417 34.2049 158.882 34.2863 162.348 34.2863C165.744 34.2863 169.175 34.2049 172.64 34.0421C172.989 34.0188 173.292 33.8793 173.547 33.6234C173.803 33.3676 173.943 33.0652 173.966 32.7163V25.7734C173.943 25.4013 173.803 25.0989 173.547 24.8663C173.292 24.6105 172.989 24.4709 172.64 24.4476L157.08 24.4825V21.5868H172.64C172.989 21.5635 173.292 21.4239 173.547 21.1681C173.803 20.9122 173.943 20.6099 173.966 20.261V16.2488C173.943 15.8999 173.803 15.5975 173.547 15.3417C173.292 15.0858 172.989 14.9579 172.64 14.9579C169.175 14.7951 165.744 14.7137 162.348 14.7137C158.882 14.7137 155.417 14.7951 151.951 14.9579C151.579 14.9579 151.265 15.0858 151.009 15.3417C150.777 15.5975 150.649 15.8999 150.625 16.2488C150.579 16.9698 150.544 17.6792 150.521 18.377H147.66C147.683 17.6094 147.718 16.8535 147.765 16.1092C147.811 15.016 148.218 14.0857 148.986 13.3181C149.777 12.5506 150.718 12.1435 151.812 12.097C155.324 11.9342 158.836 11.8528 162.348 11.8528C165.79 11.8528 169.268 11.9342 172.78 12.097C173.873 12.1435 174.803 12.5506 175.571 13.3181C176.339 14.0857 176.757 15.016 176.827 16.1092V20.4005Z" fill="white"/>
<path d="M211.333 16.1092C211.635 21.6914 211.647 27.2736 211.368 32.8559C211.298 33.949 210.868 34.891 210.077 35.6818C209.31 36.4494 208.379 36.8564 207.286 36.903C203.774 37.0658 200.262 37.1472 196.75 37.1472C193.237 37.1472 189.725 37.0658 186.213 36.903C185.12 36.8564 184.178 36.4494 183.387 35.6818C182.62 34.891 182.213 33.949 182.166 32.8559C181.887 27.2736 181.887 21.6914 182.166 16.1092C182.189 15.6906 182.271 15.2835 182.41 14.8881C182.573 14.4694 182.771 14.0973 183.003 13.7717C183.259 13.446 183.55 13.1669 183.876 12.9343C184.201 12.6785 184.562 12.4808 184.957 12.3412C185.376 12.1784 185.794 12.097 186.213 12.097C189.725 11.9342 193.237 11.8528 196.75 11.8528C200.262 11.8528 203.774 11.9342 207.286 12.097C208.379 12.1435 209.31 12.5506 210.077 13.3181C210.868 14.0857 211.287 15.016 211.333 16.1092ZM208.472 32.7163C208.751 27.2271 208.751 21.7379 208.472 16.2488C208.472 15.8999 208.344 15.5975 208.088 15.3417C207.833 15.0858 207.53 14.9579 207.181 14.9579C203.692 14.7951 200.215 14.7137 196.75 14.7137C193.284 14.7137 189.818 14.7951 186.353 14.9579C186.004 14.9579 185.701 15.0858 185.446 15.3417C185.19 15.5975 185.05 15.8999 185.027 16.2488C184.748 21.7379 184.748 27.2271 185.027 32.7163C185.05 33.0652 185.19 33.3676 185.446 33.6234C185.701 33.8793 186.004 34.0188 186.353 34.0421C189.818 34.2049 193.284 34.2863 196.75 34.2863C200.238 34.2863 203.716 34.2049 207.181 34.0421C207.53 34.0188 207.833 33.8793 208.088 33.6234C208.344 33.3676 208.472 33.0652 208.472 32.7163Z" fill="white"/>
<path d="M242.737 12.2714H245.598V36.6936H242.737V25.913H219.745V36.6936H216.885V12.2714H219.745V23.0521H242.737V12.2714Z" fill="white"/>
<path d="M266.372 12.2714L277.572 36.6936H274.397L271.989 31.4254H254.44L252.033 36.6936H248.858L260.058 12.2714H266.372ZM255.766 28.5645H270.664L264.523 15.1672H261.907L255.766 28.5645Z" fill="white"/>
<path d="M177.525 45.2714L159.592 57.4825L177.525 69.6936H172.431L156.591 58.913H151.672V69.6936H148.811V45.3063H151.672V56.0521H156.591L172.396 45.3063L177.525 45.2714Z" fill="white"/>
<path d="M208.914 49.1092C209.216 54.6914 209.228 60.2736 208.949 65.8559C208.879 66.949 208.449 67.891 207.658 68.6818C206.89 69.4494 205.96 69.8564 204.867 69.903C201.355 70.0658 197.843 70.1472 194.331 70.1472C190.818 70.1472 187.306 70.0658 183.794 69.903C182.701 69.8564 181.759 69.4494 180.968 68.6818C180.201 67.891 179.794 66.949 179.747 65.8559C179.468 60.2736 179.468 54.6914 179.747 49.1092C179.77 48.6906 179.852 48.2835 179.991 47.8881C180.154 47.4694 180.352 47.0973 180.584 46.7717C180.84 46.446 181.131 46.1669 181.457 45.9343C181.782 45.6785 182.143 45.4808 182.538 45.3412C182.957 45.1784 183.375 45.097 183.794 45.097C187.306 44.9342 190.818 44.8528 194.331 44.8528C197.843 44.8528 201.355 44.9342 204.867 45.097C205.96 45.1435 206.89 45.5506 207.658 46.3181C208.449 47.0857 208.868 48.016 208.914 49.1092ZM206.053 65.7163C206.332 60.2271 206.332 54.7379 206.053 49.2488C206.053 48.8999 205.925 48.5975 205.669 48.3417C205.414 48.0858 205.111 47.9579 204.762 47.9579C201.273 47.7951 197.796 47.7137 194.331 47.7137C190.865 47.7137 187.399 47.7951 183.934 47.9579C183.585 47.9579 183.282 48.0858 183.027 48.3417C182.771 48.5975 182.631 48.8999 182.608 49.2488C182.329 54.7379 182.329 60.2271 182.608 65.7163C182.631 66.0652 182.771 66.3676 183.027 66.6234C183.282 66.8793 183.585 67.0188 183.934 67.0421C187.399 67.2049 190.865 67.2863 194.331 67.2863C197.819 67.2863 201.297 67.2049 204.762 67.0421C205.111 67.0188 205.414 66.8793 205.669 66.6234C205.925 66.3676 206.053 66.0652 206.053 65.7163Z" fill="white"/>
<path d="M241.679 45.2714H246.773V69.6936H243.877V48.1672H243.388L232.049 69.6936H229.189L217.815 48.1672H217.326V69.6936H214.465V45.2714H219.559L230.619 66.2396L241.679 45.3063V45.2714Z" fill="white"/>
<path d="M279.498 47.0857C280.591 47.1322 281.521 47.5508 282.289 48.3417C283.056 49.1092 283.475 50.0396 283.545 51.1328V58.1454C283.498 58.8665 283.289 59.5293 282.917 60.1341C282.568 60.7388 282.091 61.2273 281.486 61.5994C280.882 61.9716 280.219 62.1693 279.498 62.1925H268.822V69.6936H265.961V62.1925H255.285C254.192 62.146 253.25 61.739 252.459 60.9714C251.691 60.1806 251.284 59.2386 251.238 58.1454V51.1328C251.284 50.0396 251.691 49.1092 252.459 48.3417C253.25 47.5508 254.192 47.1322 255.285 47.0857H265.961V45.2714H268.822V47.0857H279.498ZM255.424 59.3316H265.961V49.9814L255.424 49.9465C255.076 49.9698 254.773 50.1094 254.517 50.3652C254.261 50.5978 254.122 50.9002 254.099 51.2723V58.0059C254.122 58.3548 254.261 58.6571 254.517 58.913C254.773 59.1688 255.076 59.3084 255.424 59.3316ZM280.649 58.0059L280.684 51.2723C280.661 50.9002 280.521 50.5978 280.265 50.3652C280.009 50.1094 279.707 49.9698 279.358 49.9465L268.822 49.9814V59.3316H279.358C279.707 59.3084 280.009 59.1688 280.265 58.913C280.521 58.6571 280.649 58.3548 280.649 58.0059Z" fill="white"/>
<path d="M317.192 49.1092C317.494 54.6914 317.506 60.2736 317.227 65.8559C317.157 66.949 316.727 67.891 315.936 68.6818C315.168 69.4494 314.238 69.8564 313.145 69.903C309.633 70.0658 306.121 70.1472 302.609 70.1472C299.096 70.1472 295.584 70.0658 292.072 69.903C290.979 69.8564 290.037 69.4494 289.246 68.6818C288.479 67.891 288.072 66.949 288.025 65.8559C287.746 60.2736 287.746 54.6914 288.025 49.1092C288.048 48.6906 288.13 48.2835 288.269 47.8881C288.432 47.4694 288.63 47.0973 288.862 46.7717C289.118 46.446 289.409 46.1669 289.735 45.9343C290.06 45.6785 290.421 45.4808 290.816 45.3412C291.235 45.1784 291.653 45.097 292.072 45.097C295.584 44.9342 299.096 44.8528 302.609 44.8528C306.121 44.8528 309.633 44.9342 313.145 45.097C314.238 45.1435 315.168 45.5506 315.936 46.3181C316.727 47.0857 317.146 48.016 317.192 49.1092ZM314.331 65.7163C314.61 60.2271 314.61 54.7379 314.331 49.2488C314.331 48.8999 314.203 48.5975 313.947 48.3417C313.692 48.0858 313.389 47.9579 313.04 47.9579C309.551 47.7951 306.074 47.7137 302.609 47.7137C299.143 47.7137 295.677 47.7951 292.212 47.9579C291.863 47.9579 291.56 48.0858 291.305 48.3417C291.049 48.5975 290.909 48.8999 290.886 49.2488C290.607 54.7379 290.607 60.2271 290.886 65.7163C290.909 66.0652 291.049 66.3676 291.305 66.6234C291.56 66.8793 291.863 67.0188 292.212 67.0421C295.677 67.2049 299.143 67.2863 302.609 67.2863C306.097 67.2863 309.575 67.2049 313.04 67.0421C313.389 67.0188 313.692 66.8793 313.947 66.6234C314.203 66.3676 314.331 66.0652 314.331 65.7163Z" fill="white"/>
<path d="M351.287 49.3534V56.3661C351.24 57.4593 350.821 58.3896 350.031 59.1572C349.263 59.9248 348.333 60.3434 347.24 60.4132H325.434V69.6936H322.573V45.2714H347.24C348.333 45.3412 349.263 45.7715 350.031 46.5623C350.821 47.3299 351.24 48.2603 351.287 49.3534ZM347.1 57.5174C347.449 57.5174 347.751 57.3895 348.007 57.1336C348.263 56.8778 348.402 56.5754 348.426 56.2265V49.4581C348.402 49.1092 348.263 48.8069 348.007 48.551C347.751 48.2951 347.449 48.1672 347.1 48.1672H325.434V57.4825L347.1 57.5174Z" fill="white"/>
<path d="M353.457 45.2714H376.414V48.1672H366.366V69.6936H363.505V48.1672H353.457V45.2714Z" fill="white"/>
<path d="M391.141 45.2714L402.34 69.6936H399.165L396.758 64.4254H379.209L376.801 69.6936H373.627L384.826 45.2714H391.141ZM380.535 61.5645H395.432L389.292 48.1672H386.675L380.535 61.5645Z" fill="white"/>
<path d="M176.827 20.4005C176.78 21.4007 176.42 22.2729 175.745 23.0172C176.42 23.7615 176.78 24.6337 176.827 25.6339V32.8559C176.757 33.949 176.339 34.891 175.571 35.6818C174.803 36.4494 173.873 36.8564 172.78 36.903C169.268 37.0658 165.79 37.1472 162.348 37.1472C158.836 37.1472 155.324 37.0658 151.812 36.903C150.718 36.8564 149.777 36.4494 148.986 35.6818C148.218 34.891 147.811 33.949 147.765 32.8559C147.718 32.1348 147.683 31.3789 147.66 30.5881H150.521C150.544 31.3091 150.579 32.0185 150.625 32.7163C150.649 33.0652 150.777 33.3676 151.009 33.6234C151.265 33.8793 151.579 34.0188 151.951 34.0421C155.417 34.2049 158.882 34.2863 162.348 34.2863C165.744 34.2863 169.175 34.2049 172.64 34.0421C172.989 34.0188 173.292 33.8793 173.547 33.6234C173.803 33.3676 173.943 33.0652 173.966 32.7163V25.7734C173.943 25.4013 173.803 25.0989 173.547 24.8663C173.292 24.6105 172.989 24.4709 172.64 24.4476L157.08 24.4825V21.5868H172.64C172.989 21.5635 173.292 21.4239 173.547 21.1681C173.803 20.9122 173.943 20.6099 173.966 20.261V16.2488C173.943 15.8999 173.803 15.5975 173.547 15.3417C173.292 15.0858 172.989 14.9579 172.64 14.9579C169.175 14.7951 165.744 14.7137 162.348 14.7137C158.882 14.7137 155.417 14.7951 151.951 14.9579C151.579 14.9579 151.265 15.0858 151.009 15.3417C150.777 15.5975 150.649 15.8999 150.625 16.2488C150.579 16.9698 150.544 17.6792 150.521 18.377H147.66C147.683 17.6094 147.718 16.8535 147.765 16.1092C147.811 15.016 148.218 14.0857 148.986 13.3181C149.777 12.5506 150.718 12.1435 151.812 12.097C155.324 11.9342 158.836 11.8528 162.348 11.8528C165.79 11.8528 169.268 11.9342 172.78 12.097C173.873 12.1435 174.803 12.5506 175.571 13.3181C176.339 14.0857 176.757 15.016 176.827 16.1092V20.4005Z" stroke="white" stroke-width="0.615685"/>
<path d="M211.333 16.1092C211.635 21.6914 211.647 27.2736 211.368 32.8559C211.298 33.949 210.868 34.891 210.077 35.6818C209.31 36.4494 208.379 36.8564 207.286 36.903C203.774 37.0658 200.262 37.1472 196.75 37.1472C193.237 37.1472 189.725 37.0658 186.213 36.903C185.12 36.8564 184.178 36.4494 183.387 35.6818C182.62 34.891 182.213 33.949 182.166 32.8559C181.887 27.2736 181.887 21.6914 182.166 16.1092C182.189 15.6906 182.271 15.2835 182.41 14.8881C182.573 14.4694 182.771 14.0973 183.003 13.7717C183.259 13.446 183.55 13.1669 183.876 12.9343C184.201 12.6785 184.562 12.4808 184.957 12.3412C185.376 12.1784 185.794 12.097 186.213 12.097C189.725 11.9342 193.237 11.8528 196.75 11.8528C200.262 11.8528 203.774 11.9342 207.286 12.097C208.379 12.1435 209.31 12.5506 210.077 13.3181C210.868 14.0857 211.287 15.016 211.333 16.1092ZM208.472 32.7163C208.751 27.2271 208.751 21.7379 208.472 16.2488C208.472 15.8999 208.344 15.5975 208.088 15.3417C207.833 15.0858 207.53 14.9579 207.181 14.9579C203.692 14.7951 200.215 14.7137 196.75 14.7137C193.284 14.7137 189.818 14.7951 186.353 14.9579C186.004 14.9579 185.701 15.0858 185.446 15.3417C185.19 15.5975 185.05 15.8999 185.027 16.2488C184.748 21.7379 184.748 27.2271 185.027 32.7163C185.05 33.0652 185.19 33.3676 185.446 33.6234C185.701 33.8793 186.004 34.0188 186.353 34.0421C189.818 34.2049 193.284 34.2863 196.75 34.2863C200.238 34.2863 203.716 34.2049 207.181 34.0421C207.53 34.0188 207.833 33.8793 208.088 33.6234C208.344 33.3676 208.472 33.0652 208.472 32.7163Z" stroke="white" stroke-width="0.615685"/>
<path d="M242.737 12.2714H245.598V36.6936H242.737V25.913H219.745V36.6936H216.885V12.2714H219.745V23.0521H242.737V12.2714Z" stroke="white" stroke-width="0.615685"/>
<path d="M266.372 12.2714L277.572 36.6936H274.397L271.989 31.4254H254.44L252.033 36.6936H248.858L260.058 12.2714H266.372ZM255.766 28.5645H270.664L264.523 15.1672H261.907L255.766 28.5645Z" stroke="white" stroke-width="0.615685"/>
<path d="M177.525 45.2714L159.592 57.4825L177.525 69.6936H172.431L156.591 58.913H151.672V69.6936H148.811V45.3063H151.672V56.0521H156.591L172.396 45.3063L177.525 45.2714Z" stroke="white" stroke-width="0.615685"/>
<path d="M208.914 49.1092C209.216 54.6914 209.228 60.2736 208.949 65.8559C208.879 66.949 208.449 67.891 207.658 68.6818C206.89 69.4494 205.96 69.8564 204.867 69.903C201.355 70.0658 197.843 70.1472 194.331 70.1472C190.818 70.1472 187.306 70.0658 183.794 69.903C182.701 69.8564 181.759 69.4494 180.968 68.6818C180.201 67.891 179.794 66.949 179.747 65.8559C179.468 60.2736 179.468 54.6914 179.747 49.1092C179.77 48.6906 179.852 48.2835 179.991 47.8881C180.154 47.4694 180.352 47.0973 180.584 46.7717C180.84 46.446 181.131 46.1669 181.457 45.9343C181.782 45.6785 182.143 45.4808 182.538 45.3412C182.957 45.1784 183.375 45.097 183.794 45.097C187.306 44.9342 190.818 44.8528 194.331 44.8528C197.843 44.8528 201.355 44.9342 204.867 45.097C205.96 45.1435 206.89 45.5506 207.658 46.3181C208.449 47.0857 208.868 48.016 208.914 49.1092ZM206.053 65.7163C206.332 60.2271 206.332 54.7379 206.053 49.2488C206.053 48.8999 205.925 48.5975 205.669 48.3417C205.414 48.0858 205.111 47.9579 204.762 47.9579C201.273 47.7951 197.796 47.7137 194.331 47.7137C190.865 47.7137 187.399 47.7951 183.934 47.9579C183.585 47.9579 183.282 48.0858 183.027 48.3417C182.771 48.5975 182.631 48.8999 182.608 49.2488C182.329 54.7379 182.329 60.2271 182.608 65.7163C182.631 66.0652 182.771 66.3676 183.027 66.6234C183.282 66.8793 183.585 67.0188 183.934 67.0421C187.399 67.2049 190.865 67.2863 194.331 67.2863C197.819 67.2863 201.297 67.2049 204.762 67.0421C205.111 67.0188 205.414 66.8793 205.669 66.6234C205.925 66.3676 206.053 66.0652 206.053 65.7163Z" stroke="white" stroke-width="0.615685"/>
<path d="M241.679 45.2714H246.773V69.6936H243.877V48.1672H243.388L232.049 69.6936H229.189L217.815 48.1672H217.326V69.6936H214.465V45.2714H219.559L230.619 66.2396L241.679 45.3063V45.2714Z" stroke="white" stroke-width="0.615685"/>
<path d="M279.498 47.0857C280.591 47.1322 281.521 47.5508 282.289 48.3417C283.056 49.1092 283.475 50.0396 283.545 51.1328V58.1454C283.498 58.8665 283.289 59.5293 282.917 60.1341C282.568 60.7388 282.091 61.2273 281.486 61.5994C280.882 61.9716 280.219 62.1693 279.498 62.1925H268.822V69.6936H265.961V62.1925H255.285C254.192 62.146 253.25 61.739 252.459 60.9714C251.691 60.1806 251.284 59.2386 251.238 58.1454V51.1328C251.284 50.0396 251.691 49.1092 252.459 48.3417C253.25 47.5508 254.192 47.1322 255.285 47.0857H265.961V45.2714H268.822V47.0857H279.498ZM255.424 59.3316H265.961V49.9814L255.424 49.9465C255.076 49.9698 254.773 50.1094 254.517 50.3652C254.261 50.5978 254.122 50.9002 254.099 51.2723V58.0059C254.122 58.3548 254.261 58.6571 254.517 58.913C254.773 59.1688 255.076 59.3084 255.424 59.3316ZM280.649 58.0059L280.684 51.2723C280.661 50.9002 280.521 50.5978 280.265 50.3652C280.009 50.1094 279.707 49.9698 279.358 49.9465L268.822 49.9814V59.3316H279.358C279.707 59.3084 280.009 59.1688 280.265 58.913C280.521 58.6571 280.649 58.3548 280.649 58.0059Z" stroke="white" stroke-width="0.615685"/>
<path d="M317.192 49.1092C317.494 54.6914 317.506 60.2736 317.227 65.8559C317.157 66.949 316.727 67.891 315.936 68.6818C315.168 69.4494 314.238 69.8564 313.145 69.903C309.633 70.0658 306.121 70.1472 302.609 70.1472C299.096 70.1472 295.584 70.0658 292.072 69.903C290.979 69.8564 290.037 69.4494 289.246 68.6818C288.479 67.891 288.072 66.949 288.025 65.8559C287.746 60.2736 287.746 54.6914 288.025 49.1092C288.048 48.6906 288.13 48.2835 288.269 47.8881C288.432 47.4694 288.63 47.0973 288.862 46.7717C289.118 46.446 289.409 46.1669 289.735 45.9343C290.06 45.6785 290.421 45.4808 290.816 45.3412C291.235 45.1784 291.653 45.097 292.072 45.097C295.584 44.9342 299.096 44.8528 302.609 44.8528C306.121 44.8528 309.633 44.9342 313.145 45.097C314.238 45.1435 315.168 45.5506 315.936 46.3181C316.727 47.0857 317.146 48.016 317.192 49.1092ZM314.331 65.7163C314.61 60.2271 314.61 54.7379 314.331 49.2488C314.331 48.8999 314.203 48.5975 313.947 48.3417C313.692 48.0858 313.389 47.9579 313.04 47.9579C309.551 47.7951 306.074 47.7137 302.609 47.7137C299.143 47.7137 295.677 47.7951 292.212 47.9579C291.863 47.9579 291.56 48.0858 291.305 48.3417C291.049 48.5975 290.909 48.8999 290.886 49.2488C290.607 54.7379 290.607 60.2271 290.886 65.7163C290.909 66.0652 291.049 66.3676 291.305 66.6234C291.56 66.8793 291.863 67.0188 292.212 67.0421C295.677 67.2049 299.143 67.2863 302.609 67.2863C306.097 67.2863 309.575 67.2049 313.04 67.0421C313.389 67.0188 313.692 66.8793 313.947 66.6234C314.203 66.3676 314.331 66.0652 314.331 65.7163Z" stroke="white" stroke-width="0.615685"/>
<path d="M351.287 49.3534V56.3661C351.24 57.4593 350.821 58.3896 350.031 59.1572C349.263 59.9248 348.333 60.3434 347.24 60.4132H325.434V69.6936H322.573V45.2714H347.24C348.333 45.3412 349.263 45.7715 350.031 46.5623C350.821 47.3299 351.24 48.2603 351.287 49.3534ZM347.1 57.5174C347.449 57.5174 347.751 57.3895 348.007 57.1336C348.263 56.8778 348.402 56.5754 348.426 56.2265V49.4581C348.402 49.1092 348.263 48.8069 348.007 48.551C347.751 48.2951 347.449 48.1672 347.1 48.1672H325.434V57.4825L347.1 57.5174Z" stroke="white" stroke-width="0.615685"/>
<path d="M353.457 45.2714H376.414V48.1672H366.366V69.6936H363.505V48.1672H353.457V45.2714Z" stroke="white" stroke-width="0.615685"/>
<path d="M391.141 45.2714L402.34 69.6936H399.165L396.758 64.4254H379.209L376.801 69.6936H373.627L384.826 45.2714H391.141ZM380.535 61.5645H395.432L389.292 48.1672H386.675L380.535 61.5645Z" stroke="white" stroke-width="0.615685"/>
</svg>
