<svg width="143" height="42" viewBox="0 0 143 42" fill="none" xmlns="http://www.w3.org/2000/svg">
<rect width="141.777" height="40.2953" transform="translate(0.111328 0.852539)" fill="white" fill-opacity="0.01"/>
<path d="M49.1414 6.14089C49.1414 3.22021 51.509 0.852539 54.4297 0.852539H87.57C90.4907 0.852539 92.8584 3.22021 92.8584 6.14089V22.7111C92.8584 25.6317 90.4907 27.9994 87.57 27.9994H54.4297C51.509 27.9994 49.1414 25.6317 49.1414 22.7111V6.14089Z" fill="#FA4F19"/>
<path fill-rule="evenodd" clip-rule="evenodd" d="M53.9009 5.96442C53.9009 5.28293 54.4533 4.73047 55.1348 4.73047H67.6506C69.5004 4.73047 70.9999 6.23 70.9999 8.07976V12.4867C70.9999 13.1682 70.4474 13.7207 69.7659 13.7207C69.0844 13.7207 68.532 13.1682 68.532 12.4867V8.07976C68.532 7.59298 68.1374 7.19837 67.6506 7.19837H55.1348C54.4533 7.19837 53.9009 6.64591 53.9009 5.96442Z" fill="white"/>
<path fill-rule="evenodd" clip-rule="evenodd" d="M74.8601 11.2528C75.1337 11.2528 75.4032 11.186 75.6451 11.0581L87.3457 4.87353C87.9482 4.55506 88.6948 4.78532 89.0132 5.38782C89.3317 5.99033 89.1014 6.73692 88.4989 7.05538L76.7984 13.24C76.2011 13.5557 75.5357 13.7207 74.8601 13.7207C73.3121 13.7207 72.0572 12.4658 72.0572 10.9178V5.96446C72.0572 5.28296 72.6097 4.73051 73.2912 4.73051C73.9727 4.73051 74.5251 5.28296 74.5251 5.96446V10.9178C74.5251 11.1028 74.6751 11.2528 74.8601 11.2528Z" fill="white"/>
<path fill-rule="evenodd" clip-rule="evenodd" d="M74.9245 17.2462C75.1558 17.2462 75.3837 17.3027 75.5882 17.4108L87.3457 23.6255C87.9482 23.944 88.6948 23.7137 89.0132 23.1112C89.3317 22.5087 89.1014 21.7621 88.4989 21.4436L76.7414 15.229C76.1815 14.933 75.5578 14.7783 74.9245 14.7783C73.341 14.7783 72.0572 16.062 72.0572 17.6456V22.5346C72.0572 23.2161 72.6097 23.7685 73.2912 23.7685C73.9727 23.7685 74.5251 23.2161 74.5251 22.5346V17.6456C74.5251 17.425 74.7039 17.2462 74.9245 17.2462Z" fill="white"/>
<path fill-rule="evenodd" clip-rule="evenodd" d="M53.9009 22.5346C53.9009 23.2161 54.4533 23.7686 55.1348 23.7686H67.6506C69.5004 23.7686 70.9999 22.269 70.9999 20.4193V16.0123C70.9999 15.3308 70.4474 14.7784 69.7659 14.7784C69.0844 14.7784 68.532 15.3308 68.532 16.0123V20.4193C68.532 20.906 68.1374 21.3007 67.6506 21.3007H55.1348C54.4533 21.3007 53.9009 21.8531 53.9009 22.5346Z" fill="white"/>
<path fill-rule="evenodd" clip-rule="evenodd" d="M57.6028 14.2494C57.6028 14.9309 58.1552 15.4834 58.8367 15.4834H66.0641C66.7456 15.4834 67.2981 14.9309 67.2981 14.2494C67.2981 13.568 66.7456 13.0155 66.0641 13.0155H58.8367C58.1552 13.0155 57.6028 13.568 57.6028 14.2494Z" fill="white"/>
<path d="M10.3944 35.244C10.378 35.5966 10.2509 35.9042 10.0131 36.1666C10.2509 36.429 10.378 36.7365 10.3944 37.0891V39.6352C10.3698 40.0207 10.2222 40.3528 9.95156 40.6316C9.68095 40.9022 9.35294 41.0457 8.96754 41.0621C7.72931 41.1195 6.50338 41.1482 5.28975 41.1482C4.05152 41.1482 2.81329 41.1195 1.57506 41.0621C1.18965 41.0457 0.857546 40.9022 0.578739 40.6316C0.308133 40.3528 0.164629 40.0207 0.148229 39.6352C0.131829 39.381 0.119528 39.1145 0.111328 38.8357H1.11995C1.12815 39.0899 1.14045 39.34 1.15685 39.586C1.16505 39.709 1.21015 39.8156 1.29216 39.9058C1.38236 39.9961 1.49306 40.0453 1.62426 40.0535C2.84609 40.1109 4.06792 40.1396 5.28975 40.1396C6.48698 40.1396 7.69651 40.1109 8.91833 40.0535C9.04134 40.0453 9.14794 39.9961 9.23814 39.9058C9.32834 39.8156 9.37755 39.709 9.38575 39.586V37.1383C9.37755 37.0071 9.32834 36.9005 9.23814 36.8185C9.14794 36.7283 9.04134 36.6791 8.91833 36.6709L3.43241 36.6832V35.6622H8.91833C9.04134 35.654 9.14794 35.6048 9.23814 35.5146C9.32834 35.4244 9.37755 35.3178 9.38575 35.1948V33.7803C9.37755 33.6573 9.32834 33.5507 9.23814 33.4605C9.14794 33.3703 9.04134 33.3252 8.91833 33.3252C7.69651 33.2678 6.48698 33.2391 5.28975 33.2391C4.06792 33.2391 2.84609 33.2678 1.62426 33.3252C1.49306 33.3252 1.38236 33.3703 1.29216 33.4605C1.21015 33.5507 1.16505 33.6573 1.15685 33.7803C1.14045 34.0345 1.12815 34.2846 1.11995 34.5306H0.111328C0.119528 34.26 0.131829 33.9935 0.148229 33.7311C0.164629 33.3457 0.308133 33.0177 0.578739 32.7471C0.857546 32.4765 1.18965 32.333 1.57506 32.3166C2.81329 32.2592 4.05152 32.2305 5.28975 32.2305C6.50338 32.2305 7.72931 32.2592 8.96754 32.3166C9.35294 32.333 9.68095 32.4765 9.95156 32.7471C10.2222 33.0177 10.3698 33.3457 10.3944 33.7311V35.244Z" fill="#1A1A1C"/>
<path d="M22.5597 33.7311C22.6663 35.6991 22.6704 37.6672 22.572 39.6352C22.5474 40.0207 22.3957 40.3528 22.1169 40.6316C21.8463 40.9022 21.5183 41.0457 21.1329 41.0621C19.8947 41.1195 18.6564 41.1482 17.4182 41.1482C16.18 41.1482 14.9418 41.1195 13.7035 41.0621C13.3181 41.0457 12.986 40.9022 12.7072 40.6316C12.4366 40.3528 12.2931 40.0207 12.2767 39.6352C12.1783 37.6672 12.1783 35.6991 12.2767 33.7311C12.2849 33.5835 12.3136 33.44 12.3628 33.3006C12.4202 33.153 12.4899 33.0218 12.5719 32.907C12.6621 32.7922 12.7646 32.6938 12.8794 32.6118C12.9942 32.5216 13.1213 32.4519 13.2607 32.4027C13.4083 32.3453 13.5559 32.3166 13.7035 32.3166C14.9418 32.2592 16.18 32.2305 17.4182 32.2305C18.6564 32.2305 19.8947 32.2592 21.1329 32.3166C21.5183 32.333 21.8463 32.4765 22.1169 32.7471C22.3957 33.0177 22.5433 33.3457 22.5597 33.7311ZM21.5511 39.586C21.6495 37.6508 21.6495 35.7155 21.5511 33.7803C21.5511 33.6573 21.506 33.5507 21.4158 33.4605C21.3256 33.3703 21.219 33.3252 21.096 33.3252C19.866 33.2678 18.64 33.2391 17.4182 33.2391C16.1964 33.2391 14.9746 33.2678 13.7527 33.3252C13.6297 33.3252 13.5231 33.3703 13.4329 33.4605C13.3427 33.5507 13.2935 33.6573 13.2853 33.7803C13.1869 35.7155 13.1869 37.6508 13.2853 39.586C13.2935 39.709 13.3427 39.8156 13.4329 39.9058C13.5231 39.9961 13.6297 40.0453 13.7527 40.0535C14.9746 40.1109 16.1964 40.1396 17.4182 40.1396C18.6482 40.1396 19.8742 40.1109 21.096 40.0535C21.219 40.0453 21.3256 39.9961 21.4158 39.9058C21.506 39.8156 21.5511 39.709 21.5511 39.586Z" fill="#1A1A1C"/>
<path d="M33.6314 32.3781H34.6401V40.9883H33.6314V37.1875H25.5255V40.9883H24.5169V32.3781H25.5255V36.1789H33.6314V32.3781Z" fill="#1A1A1C"/>
<path d="M41.9642 32.3781L45.9126 40.9883H44.7933L43.9446 39.1309H37.7575L36.9088 40.9883H35.7895L39.7379 32.3781H41.9642ZM38.2249 38.1223H43.4771L41.3123 33.399H40.3898L38.2249 38.1223Z" fill="#1A1A1C"/>
<path d="M62.6283 32.3781L56.306 36.6832L62.6283 40.9883H60.8325L55.2481 37.1875H53.5138V40.9883H52.5052V32.3904H53.5138V36.1789H55.2481L60.8202 32.3904L62.6283 32.3781Z" fill="#1A1A1C"/>
<path d="M73.6948 33.7311C73.8014 35.6991 73.8055 37.6672 73.7071 39.6352C73.6825 40.0207 73.5308 40.3528 73.252 40.6316C72.9814 40.9022 72.6534 41.0457 72.268 41.0621C71.0298 41.1195 69.7915 41.1482 68.5533 41.1482C67.3151 41.1482 66.0768 41.1195 64.8386 41.0621C64.4532 41.0457 64.1211 40.9022 63.8423 40.6316C63.5717 40.3528 63.4282 40.0207 63.4118 39.6352C63.3134 37.6672 63.3134 35.6991 63.4118 33.7311C63.42 33.5835 63.4487 33.44 63.4979 33.3006C63.5553 33.153 63.625 33.0218 63.707 32.907C63.7972 32.7922 63.8997 32.6938 64.0145 32.6118C64.1293 32.5216 64.2564 32.4519 64.3958 32.4027C64.5434 32.3453 64.691 32.3166 64.8386 32.3166C66.0768 32.2592 67.3151 32.2305 68.5533 32.2305C69.7915 32.2305 71.0298 32.2592 72.268 32.3166C72.6534 32.333 72.9814 32.4765 73.252 32.7471C73.5308 33.0177 73.6784 33.3457 73.6948 33.7311ZM72.6862 39.586C72.7846 37.6508 72.7846 35.7155 72.6862 33.7803C72.6862 33.6573 72.6411 33.5507 72.5509 33.4605C72.4607 33.3703 72.3541 33.3252 72.2311 33.3252C71.0011 33.2678 69.7751 33.2391 68.5533 33.2391C67.3315 33.2391 66.1096 33.2678 64.8878 33.3252C64.7648 33.3252 64.6582 33.3703 64.568 33.4605C64.4778 33.5507 64.4286 33.6573 64.4204 33.7803C64.322 35.7155 64.322 37.6508 64.4204 39.586C64.4286 39.709 64.4778 39.8156 64.568 39.9058C64.6582 39.9961 64.7648 40.0453 64.8878 40.0535C66.1096 40.1109 67.3315 40.1396 68.5533 40.1396C69.7833 40.1396 71.0093 40.1109 72.2311 40.0535C72.3541 40.0453 72.4607 39.9961 72.5509 39.9058C72.6411 39.8156 72.6862 39.709 72.6862 39.586Z" fill="#1A1A1C"/>
<path d="M85.2462 32.3781H87.0421V40.9883H86.0211V33.399H85.8489L81.8513 40.9883H80.8427L76.8328 33.399H76.6606V40.9883H75.652V32.3781H77.4478L81.347 39.7705L85.2462 32.3904V32.3781Z" fill="#1A1A1C"/>
<path d="M98.5796 33.0177C98.965 33.0341 99.293 33.1817 99.5636 33.4605C99.8342 33.7311 99.9818 34.0591 100.006 34.4445V36.9169C99.99 37.1711 99.9162 37.4048 99.785 37.618C99.662 37.8312 99.4939 38.0034 99.2807 38.1346C99.0675 38.2658 98.8338 38.3355 98.5796 38.3437H94.8157V40.9883H93.807V38.3437H90.0432C89.6577 38.3273 89.3256 38.1838 89.0468 37.9132C88.7762 37.6344 88.6327 37.3023 88.6163 36.9169V34.4445C88.6327 34.0591 88.7762 33.7311 89.0468 33.4605C89.3256 33.1817 89.6577 33.0341 90.0432 33.0177H93.807V32.3781H94.8157V33.0177H98.5796ZM90.0924 37.3351H93.807V34.0386L90.0924 34.0263C89.9694 34.0345 89.8627 34.0837 89.7725 34.1739C89.6823 34.2559 89.6331 34.3625 89.6249 34.4937V36.8677C89.6331 36.9907 89.6823 37.0973 89.7725 37.1875C89.8627 37.2777 89.9694 37.3269 90.0924 37.3351ZM98.9855 36.8677L98.9978 34.4937C98.9896 34.3625 98.9404 34.2559 98.8502 34.1739C98.76 34.0837 98.6534 34.0345 98.5303 34.0263L94.8157 34.0386V37.3351H98.5303C98.6534 37.3269 98.76 37.2777 98.8502 37.1875C98.9404 37.0973 98.9855 36.9907 98.9855 36.8677Z" fill="#1A1A1C"/>
<path d="M111.869 33.7311C111.976 35.6991 111.98 37.6672 111.881 39.6352C111.857 40.0207 111.705 40.3528 111.426 40.6316C111.156 40.9022 110.828 41.0457 110.442 41.0621C109.204 41.1195 107.966 41.1482 106.727 41.1482C105.489 41.1482 104.251 41.1195 103.013 41.0621C102.627 41.0457 102.295 40.9022 102.016 40.6316C101.746 40.3528 101.602 40.0207 101.586 39.6352C101.488 37.6672 101.488 35.6991 101.586 33.7311C101.594 33.5835 101.623 33.44 101.672 33.3006C101.729 33.153 101.799 33.0218 101.881 32.907C101.971 32.7922 102.074 32.6938 102.189 32.6118C102.303 32.5216 102.431 32.4519 102.57 32.4027C102.718 32.3453 102.865 32.3166 103.013 32.3166C104.251 32.2592 105.489 32.2305 106.727 32.2305C107.966 32.2305 109.204 32.2592 110.442 32.3166C110.828 32.333 111.156 32.4765 111.426 32.7471C111.705 33.0177 111.853 33.3457 111.869 33.7311ZM110.86 39.586C110.959 37.6508 110.959 35.7155 110.86 33.7803C110.86 33.6573 110.815 33.5507 110.725 33.4605C110.635 33.3703 110.528 33.3252 110.405 33.3252C109.175 33.2678 107.949 33.2391 106.727 33.2391C105.506 33.2391 104.284 33.2678 103.062 33.3252C102.939 33.3252 102.832 33.3703 102.742 33.4605C102.652 33.5507 102.603 33.6573 102.595 33.7803C102.496 35.7155 102.496 37.6508 102.595 39.586C102.603 39.709 102.652 39.8156 102.742 39.9058C102.832 39.9961 102.939 40.0453 103.062 40.0535C104.284 40.1109 105.506 40.1396 106.727 40.1396C107.957 40.1396 109.183 40.1109 110.405 40.0535C110.528 40.0453 110.635 39.9961 110.725 39.9058C110.815 39.8156 110.86 39.709 110.86 39.586Z" fill="#1A1A1C"/>
<path d="M123.889 33.8172V36.2896C123.873 36.675 123.725 37.003 123.446 37.2736C123.176 37.5442 122.848 37.6918 122.462 37.7164H114.775V40.9883H113.766V32.3781H122.462C122.848 32.4027 123.176 32.5544 123.446 32.8332C123.725 33.1038 123.873 33.4318 123.889 33.8172ZM122.413 36.6955C122.536 36.6955 122.643 36.6504 122.733 36.5602C122.823 36.47 122.872 36.3634 122.881 36.2404V33.8541C122.872 33.7311 122.823 33.6245 122.733 33.5343C122.643 33.4441 122.536 33.399 122.413 33.399H114.775V36.6832L122.413 36.6955Z" fill="#1A1A1C"/>
<path d="M124.655 32.3781H132.748V33.399H129.206V40.9883H128.197V33.399H124.655V32.3781Z" fill="#1A1A1C"/>
<path d="M137.94 32.3781L141.888 40.9883H140.769L139.92 39.1309H133.733L132.885 40.9883H131.765L135.714 32.3781H137.94ZM134.201 38.1223H139.453L137.288 33.399H136.366L134.201 38.1223Z" fill="#1A1A1C"/>
<path d="M10.3944 35.244C10.378 35.5966 10.2509 35.9042 10.0131 36.1666C10.2509 36.429 10.378 36.7365 10.3944 37.0891V39.6352C10.3698 40.0207 10.2222 40.3528 9.95156 40.6316C9.68095 40.9022 9.35294 41.0457 8.96754 41.0621C7.72931 41.1195 6.50338 41.1482 5.28975 41.1482C4.05152 41.1482 2.81329 41.1195 1.57506 41.0621C1.18965 41.0457 0.857546 40.9022 0.578739 40.6316C0.308133 40.3528 0.164629 40.0207 0.148229 39.6352C0.131829 39.381 0.119528 39.1145 0.111328 38.8357H1.11995C1.12815 39.0899 1.14045 39.34 1.15685 39.586C1.16505 39.709 1.21015 39.8156 1.29216 39.9058C1.38236 39.9961 1.49306 40.0453 1.62426 40.0535C2.84609 40.1109 4.06792 40.1396 5.28975 40.1396C6.48698 40.1396 7.69651 40.1109 8.91833 40.0535C9.04134 40.0453 9.14794 39.9961 9.23814 39.9058C9.32834 39.8156 9.37755 39.709 9.38575 39.586V37.1383C9.37755 37.0071 9.32834 36.9005 9.23814 36.8185C9.14794 36.7283 9.04134 36.6791 8.91833 36.6709L3.43241 36.6832V35.6622H8.91833C9.04134 35.654 9.14794 35.6048 9.23814 35.5146C9.32834 35.4244 9.37755 35.3178 9.38575 35.1948V33.7803C9.37755 33.6573 9.32834 33.5507 9.23814 33.4605C9.14794 33.3703 9.04134 33.3252 8.91833 33.3252C7.69651 33.2678 6.48698 33.2391 5.28975 33.2391C4.06792 33.2391 2.84609 33.2678 1.62426 33.3252C1.49306 33.3252 1.38236 33.3703 1.29216 33.4605C1.21015 33.5507 1.16505 33.6573 1.15685 33.7803C1.14045 34.0345 1.12815 34.2846 1.11995 34.5306H0.111328C0.119528 34.26 0.131829 33.9935 0.148229 33.7311C0.164629 33.3457 0.308133 33.0177 0.578739 32.7471C0.857546 32.4765 1.18965 32.333 1.57506 32.3166C2.81329 32.2592 4.05152 32.2305 5.28975 32.2305C6.50338 32.2305 7.72931 32.2592 8.96754 32.3166C9.35294 32.333 9.68095 32.4765 9.95156 32.7471C10.2222 33.0177 10.3698 33.3457 10.3944 33.7311V35.244Z" stroke="#1A1A1C" stroke-width="0.217064"/>
<path d="M22.5597 33.7311C22.6663 35.6991 22.6704 37.6672 22.572 39.6352C22.5474 40.0207 22.3957 40.3528 22.1169 40.6316C21.8463 40.9022 21.5183 41.0457 21.1329 41.0621C19.8947 41.1195 18.6564 41.1482 17.4182 41.1482C16.18 41.1482 14.9418 41.1195 13.7035 41.0621C13.3181 41.0457 12.986 40.9022 12.7072 40.6316C12.4366 40.3528 12.2931 40.0207 12.2767 39.6352C12.1783 37.6672 12.1783 35.6991 12.2767 33.7311C12.2849 33.5835 12.3136 33.44 12.3628 33.3006C12.4202 33.153 12.4899 33.0218 12.5719 32.907C12.6621 32.7922 12.7646 32.6938 12.8794 32.6118C12.9942 32.5216 13.1213 32.4519 13.2607 32.4027C13.4083 32.3453 13.5559 32.3166 13.7035 32.3166C14.9418 32.2592 16.18 32.2305 17.4182 32.2305C18.6564 32.2305 19.8947 32.2592 21.1329 32.3166C21.5183 32.333 21.8463 32.4765 22.1169 32.7471C22.3957 33.0177 22.5433 33.3457 22.5597 33.7311ZM21.5511 39.586C21.6495 37.6508 21.6495 35.7155 21.5511 33.7803C21.5511 33.6573 21.506 33.5507 21.4158 33.4605C21.3256 33.3703 21.219 33.3252 21.096 33.3252C19.866 33.2678 18.64 33.2391 17.4182 33.2391C16.1964 33.2391 14.9746 33.2678 13.7527 33.3252C13.6297 33.3252 13.5231 33.3703 13.4329 33.4605C13.3427 33.5507 13.2935 33.6573 13.2853 33.7803C13.1869 35.7155 13.1869 37.6508 13.2853 39.586C13.2935 39.709 13.3427 39.8156 13.4329 39.9058C13.5231 39.9961 13.6297 40.0453 13.7527 40.0535C14.9746 40.1109 16.1964 40.1396 17.4182 40.1396C18.6482 40.1396 19.8742 40.1109 21.096 40.0535C21.219 40.0453 21.3256 39.9961 21.4158 39.9058C21.506 39.8156 21.5511 39.709 21.5511 39.586Z" stroke="#1A1A1C" stroke-width="0.217064"/>
<path d="M33.6314 32.3781H34.6401V40.9883H33.6314V37.1875H25.5255V40.9883H24.5169V32.3781H25.5255V36.1789H33.6314V32.3781Z" stroke="#1A1A1C" stroke-width="0.217064"/>
<path d="M41.9642 32.3781L45.9126 40.9883H44.7933L43.9446 39.1309H37.7575L36.9088 40.9883H35.7895L39.7379 32.3781H41.9642ZM38.2249 38.1223H43.4771L41.3123 33.399H40.3898L38.2249 38.1223Z" stroke="#1A1A1C" stroke-width="0.217064"/>
<path d="M62.6283 32.3781L56.306 36.6832L62.6283 40.9883H60.8325L55.2481 37.1875H53.5138V40.9883H52.5052V32.3904H53.5138V36.1789H55.2481L60.8202 32.3904L62.6283 32.3781Z" stroke="#1A1A1C" stroke-width="0.217064"/>
<path d="M73.6948 33.7311C73.8014 35.6991 73.8055 37.6672 73.7071 39.6352C73.6825 40.0207 73.5308 40.3528 73.252 40.6316C72.9814 40.9022 72.6534 41.0457 72.268 41.0621C71.0298 41.1195 69.7915 41.1482 68.5533 41.1482C67.3151 41.1482 66.0768 41.1195 64.8386 41.0621C64.4532 41.0457 64.1211 40.9022 63.8423 40.6316C63.5717 40.3528 63.4282 40.0207 63.4118 39.6352C63.3134 37.6672 63.3134 35.6991 63.4118 33.7311C63.42 33.5835 63.4487 33.44 63.4979 33.3006C63.5553 33.153 63.625 33.0218 63.707 32.907C63.7972 32.7922 63.8997 32.6938 64.0145 32.6118C64.1293 32.5216 64.2564 32.4519 64.3958 32.4027C64.5434 32.3453 64.691 32.3166 64.8386 32.3166C66.0768 32.2592 67.3151 32.2305 68.5533 32.2305C69.7915 32.2305 71.0298 32.2592 72.268 32.3166C72.6534 32.333 72.9814 32.4765 73.252 32.7471C73.5308 33.0177 73.6784 33.3457 73.6948 33.7311ZM72.6862 39.586C72.7846 37.6508 72.7846 35.7155 72.6862 33.7803C72.6862 33.6573 72.6411 33.5507 72.5509 33.4605C72.4607 33.3703 72.3541 33.3252 72.2311 33.3252C71.0011 33.2678 69.7751 33.2391 68.5533 33.2391C67.3315 33.2391 66.1096 33.2678 64.8878 33.3252C64.7648 33.3252 64.6582 33.3703 64.568 33.4605C64.4778 33.5507 64.4286 33.6573 64.4204 33.7803C64.322 35.7155 64.322 37.6508 64.4204 39.586C64.4286 39.709 64.4778 39.8156 64.568 39.9058C64.6582 39.9961 64.7648 40.0453 64.8878 40.0535C66.1096 40.1109 67.3315 40.1396 68.5533 40.1396C69.7833 40.1396 71.0093 40.1109 72.2311 40.0535C72.3541 40.0453 72.4607 39.9961 72.5509 39.9058C72.6411 39.8156 72.6862 39.709 72.6862 39.586Z" stroke="#1A1A1C" stroke-width="0.217064"/>
<path d="M85.2462 32.3781H87.0421V40.9883H86.0211V33.399H85.8489L81.8513 40.9883H80.8427L76.8328 33.399H76.6606V40.9883H75.652V32.3781H77.4478L81.347 39.7705L85.2462 32.3904V32.3781Z" stroke="#1A1A1C" stroke-width="0.217064"/>
<path d="M98.5796 33.0177C98.965 33.0341 99.293 33.1817 99.5636 33.4605C99.8342 33.7311 99.9818 34.0591 100.006 34.4445V36.9169C99.99 37.1711 99.9162 37.4048 99.785 37.618C99.662 37.8312 99.4939 38.0034 99.2807 38.1346C99.0675 38.2658 98.8338 38.3355 98.5796 38.3437H94.8157V40.9883H93.807V38.3437H90.0432C89.6577 38.3273 89.3256 38.1838 89.0468 37.9132C88.7762 37.6344 88.6327 37.3023 88.6163 36.9169V34.4445C88.6327 34.0591 88.7762 33.7311 89.0468 33.4605C89.3256 33.1817 89.6577 33.0341 90.0432 33.0177H93.807V32.3781H94.8157V33.0177H98.5796ZM90.0924 37.3351H93.807V34.0386L90.0924 34.0263C89.9694 34.0345 89.8627 34.0837 89.7725 34.1739C89.6823 34.2559 89.6331 34.3625 89.6249 34.4937V36.8677C89.6331 36.9907 89.6823 37.0973 89.7725 37.1875C89.8627 37.2777 89.9694 37.3269 90.0924 37.3351ZM98.9855 36.8677L98.9978 34.4937C98.9896 34.3625 98.9404 34.2559 98.8502 34.1739C98.76 34.0837 98.6534 34.0345 98.5303 34.0263L94.8157 34.0386V37.3351H98.5303C98.6534 37.3269 98.76 37.2777 98.8502 37.1875C98.9404 37.0973 98.9855 36.9907 98.9855 36.8677Z" stroke="#1A1A1C" stroke-width="0.217064"/>
<path d="M111.869 33.7311C111.976 35.6991 111.98 37.6672 111.881 39.6352C111.857 40.0207 111.705 40.3528 111.426 40.6316C111.156 40.9022 110.828 41.0457 110.442 41.0621C109.204 41.1195 107.966 41.1482 106.727 41.1482C105.489 41.1482 104.251 41.1195 103.013 41.0621C102.627 41.0457 102.295 40.9022 102.016 40.6316C101.746 40.3528 101.602 40.0207 101.586 39.6352C101.488 37.6672 101.488 35.6991 101.586 33.7311C101.594 33.5835 101.623 33.44 101.672 33.3006C101.729 33.153 101.799 33.0218 101.881 32.907C101.971 32.7922 102.074 32.6938 102.189 32.6118C102.303 32.5216 102.431 32.4519 102.57 32.4027C102.718 32.3453 102.865 32.3166 103.013 32.3166C104.251 32.2592 105.489 32.2305 106.727 32.2305C107.966 32.2305 109.204 32.2592 110.442 32.3166C110.828 32.333 111.156 32.4765 111.426 32.7471C111.705 33.0177 111.853 33.3457 111.869 33.7311ZM110.86 39.586C110.959 37.6508 110.959 35.7155 110.86 33.7803C110.86 33.6573 110.815 33.5507 110.725 33.4605C110.635 33.3703 110.528 33.3252 110.405 33.3252C109.175 33.2678 107.949 33.2391 106.727 33.2391C105.506 33.2391 104.284 33.2678 103.062 33.3252C102.939 33.3252 102.832 33.3703 102.742 33.4605C102.652 33.5507 102.603 33.6573 102.595 33.7803C102.496 35.7155 102.496 37.6508 102.595 39.586C102.603 39.709 102.652 39.8156 102.742 39.9058C102.832 39.9961 102.939 40.0453 103.062 40.0535C104.284 40.1109 105.506 40.1396 106.727 40.1396C107.957 40.1396 109.183 40.1109 110.405 40.0535C110.528 40.0453 110.635 39.9961 110.725 39.9058C110.815 39.8156 110.86 39.709 110.86 39.586Z" stroke="#1A1A1C" stroke-width="0.217064"/>
<path d="M123.889 33.8172V36.2896C123.873 36.675 123.725 37.003 123.446 37.2736C123.176 37.5442 122.848 37.6918 122.462 37.7164H114.775V40.9883H113.766V32.3781H122.462C122.848 32.4027 123.176 32.5544 123.446 32.8332C123.725 33.1038 123.873 33.4318 123.889 33.8172ZM122.413 36.6955C122.536 36.6955 122.643 36.6504 122.733 36.5602C122.823 36.47 122.872 36.3634 122.881 36.2404V33.8541C122.872 33.7311 122.823 33.6245 122.733 33.5343C122.643 33.4441 122.536 33.399 122.413 33.399H114.775V36.6832L122.413 36.6955Z" stroke="#1A1A1C" stroke-width="0.217064"/>
<path d="M124.655 32.3781H132.748V33.399H129.206V40.9883H128.197V33.399H124.655V32.3781Z" stroke="#1A1A1C" stroke-width="0.217064"/>
<path d="M137.94 32.3781L141.888 40.9883H140.769L139.92 39.1309H133.733L132.885 40.9883H131.765L135.714 32.3781H137.94ZM134.201 38.1223H139.453L137.288 33.399H136.366L134.201 38.1223Z" stroke="#1A1A1C" stroke-width="0.217064"/>
</svg>
