<svg width="33" height="32" viewBox="0 0 33 32" fill="none" xmlns="http://www.w3.org/2000/svg">
<path d="M32.5 0H0.5V32H32.5V0Z" fill="white"/>
<path d="M32.5 16C41.3366 16 48.5 8.83656 48.5 7.62939e-06C48.5 -8.83656 41.3366 -16 32.5 -16C23.6634 -16 16.5 -8.83656 16.5 7.62939e-06C16.5 8.83656 23.6634 16 32.5 16Z" fill="#ED143B"/>
<path d="M20.2663 15.2695H10.8123V11.5284H20.2663C20.8185 11.5284 21.2025 11.6247 21.3952 11.7928C21.5879 11.9608 21.7072 12.2726 21.7072 12.728V14.0713C21.7072 14.5511 21.5879 14.8629 21.3952 15.031C21.2025 15.1991 20.8185 15.2709 20.2663 15.2709V15.2695ZM20.9149 8.00143H6.80298V24H10.8123V18.795H18.2012L21.7072 24H26.1969L22.3314 18.7706C23.7565 18.5594 24.3964 18.1227 24.9242 17.4029C25.4519 16.6831 25.7167 15.5324 25.7167 13.9966V12.797C25.7167 11.8861 25.6202 11.1664 25.452 10.6147C25.2837 10.063 24.9962 9.5832 24.5877 9.15219C24.1563 8.74419 23.676 8.45685 23.0993 8.26434C22.5226 8.09627 21.8022 8 20.9149 8V8.00143Z" fill="#100943"/>
</svg>
