<svg width="32" height="32" viewBox="0 0 32 32" fill="none" xmlns="http://www.w3.org/2000/svg">
<rect width="32" height="32" rx="6" fill="#2F89CE"/>
<path d="M6.69449 16.5115L10.5569 17.9267L12.0626 22.6868C12.128 23.0084 12.5208 23.0727 12.7827 22.8797L14.943 21.1429C15.1394 20.95 15.4667 20.95 15.7286 21.1429L19.5909 23.9089C19.8528 24.1019 20.2456 23.9733 20.3111 23.6516L23.1915 10.1433C23.2569 9.82163 22.9296 9.5 22.6023 9.62866L6.69449 15.6753C6.30171 15.8039 6.30171 16.3828 6.69449 16.5115ZM11.8662 17.2191L19.46 12.652C19.5909 12.5876 19.7219 12.7806 19.5909 12.8449L13.3718 18.5699C13.1755 18.7629 12.9791 19.0202 12.9791 19.3418L12.7827 20.8856C12.7827 21.0786 12.4553 21.1429 12.3899 20.8856L11.6043 18.0553C11.4079 17.7337 11.5389 17.3477 11.8662 17.2191Z" fill="white"/>
</svg>
