<svg width="34" height="33" viewBox="0 0 34 33" fill="none" xmlns="http://www.w3.org/2000/svg">
<path d="M0.66333 15.6832C0.66333 8.29006 0.66333 4.5935 2.96008 2.29675C5.25683 0 8.95339 0 16.3465 0H17.6534C25.0465 0 28.7431 0 31.0399 2.29675C33.3366 4.5935 33.3366 8.29006 33.3366 15.6832V16.9901C33.3366 24.3832 33.3366 28.0798 31.0399 30.3765C28.7431 32.6733 25.0465 32.6733 17.6534 32.6733H16.3465C8.95339 32.6733 5.25683 32.6733 2.96008 30.3765C0.66333 28.0798 0.66333 24.3832 0.66333 16.9901V15.6832Z" fill="#0077FF"/>
<path d="M18.0483 23.5387C10.6015 23.5387 6.35399 18.4335 6.177 9.93848H9.90721C10.0297 16.1736 12.7797 18.8147 14.9579 19.3593V9.93848H18.4704V15.3159C20.6214 15.0845 22.881 12.634 23.6434 9.93848H27.1559C26.5704 13.2603 24.12 15.7107 22.3774 16.7181C24.12 17.535 26.9109 19.6724 27.9728 23.5387H24.1064C23.2759 20.9521 21.2068 18.9508 18.4704 18.6785V23.5387H18.0483Z" fill="white"/>
</svg>
