<svg xmlns="http://www.w3.org/2000/svg" version="1.1" xmlns:xlink="http://www.w3.org/1999/xlink" xmlns:svgjs="http://svgjs.dev/svgjs" width="77" height="48"><svg width="77" height="48" viewBox="0 0 77 48" fill="none" xmlns="http://www.w3.org/2000/svg">
<path fill-rule="evenodd" clip-rule="evenodd" d="M13.6171 24.0804C13.6158 23.5026 13.8435 22.9478 14.2505 22.5378C14.6574 22.1277 15.2103 21.8959 15.7878 21.8932H28.7709C29.3507 21.8932 29.9067 22.1237 30.3167 22.5338C30.7266 22.944 30.9569 23.5003 30.9569 24.0804C30.9569 24.6605 30.7266 25.2168 30.3167 25.627C29.9067 26.0372 29.3507 26.2676 28.7709 26.2676H15.7878C15.2103 26.2649 14.6574 26.0331 14.2505 25.6231C13.8435 25.2131 13.6158 24.6583 13.6171 24.0804ZM35.2472 25.174C34.6697 25.1767 34.1168 25.4085 33.7099 25.8186C33.3029 26.2286 33.0751 26.7834 33.0765 27.3612V35.5684C33.0779 35.7107 33.0512 35.8518 32.998 35.9838C32.9448 36.1157 32.8662 36.2359 32.7666 36.3375C32.667 36.439 32.5484 36.52 32.4175 36.5756C32.2867 36.6313 32.1462 36.6607 32.004 36.662H9.30134C8.73919 36.6892 8.20903 36.9318 7.82079 37.3394C7.43255 37.7471 7.21599 38.2887 7.21599 38.8518C7.21599 39.4149 7.43255 39.9564 7.82079 40.3641C8.20903 40.7718 8.73919 41.0143 9.30134 41.0415H32.0142C32.7289 41.0382 33.436 40.8939 34.095 40.617C34.754 40.3401 35.352 39.9359 35.8548 39.4276C36.3576 38.9193 36.7553 38.3169 37.0253 37.6547C37.2952 36.9925 37.4321 36.2835 37.4281 35.5684V27.3612C37.4287 27.0743 37.3728 26.79 37.2635 26.5246C37.1542 26.2593 36.9937 26.0181 36.7911 25.815C36.5885 25.6118 36.3479 25.4506 36.0829 25.3406C35.818 25.2306 35.534 25.174 35.2472 25.174ZM35.2472 22.9868C34.6697 22.9841 34.1168 22.7523 33.7099 22.3423C33.3029 21.9322 33.0751 21.3775 33.0765 20.7996V12.5925C33.0785 12.4498 33.0523 12.3081 32.9995 12.1755C32.9466 12.043 32.8681 11.9222 32.7684 11.8201C32.6688 11.718 32.5499 11.6366 32.4187 11.5806C32.2875 11.5246 32.1466 11.4951 32.004 11.4938H9.30134C8.72158 11.4938 8.16556 11.2633 7.75561 10.8531C7.34565 10.4429 7.11534 9.88663 7.11534 9.30654C7.11534 8.72646 7.34565 8.17013 7.75561 7.75995C8.16556 7.34977 8.72158 7.11933 9.30134 7.11933H32.0142C32.7289 7.12268 33.436 7.26693 34.095 7.54386C34.754 7.82078 35.352 8.22494 35.8548 8.73324C36.3576 9.24154 36.7553 9.844 37.0253 10.5062C37.2952 11.1684 37.4321 11.8773 37.4281 12.5925V20.7996C37.4308 21.0879 37.3764 21.3738 37.268 21.6409C37.1596 21.9081 36.9993 22.151 36.7966 22.3558C36.5938 22.5606 36.3525 22.7232 36.0865 22.8341C35.8206 22.9451 35.5353 23.0022 35.2472 23.0022V22.9868ZM66.6989 40.7962C66.9524 40.9285 67.2296 41.0091 67.5145 41.0334C67.7994 41.0577 68.0862 41.0252 68.3584 40.9377C68.6307 40.8503 68.8828 40.7096 69.1003 40.5239C69.3178 40.3382 69.4963 40.1112 69.6254 39.8559C69.8883 39.3416 69.9382 38.7443 69.7642 38.1933C69.5903 37.6424 69.2064 37.1823 68.6959 36.9124L47.5051 25.8128C46.6757 25.3779 45.7477 25.1657 44.8118 25.1968C43.8759 25.228 42.9641 25.5015 42.1655 25.9906C41.3668 26.4798 40.7086 27.1678 40.2551 27.9876C39.8017 28.8073 39.5685 29.7307 39.5783 30.6676V38.8441C39.5783 39.4201 39.807 39.9726 40.2141 40.3799C40.6211 40.7872 41.1733 41.016 41.7489 41.016C42.3246 41.016 42.8768 40.7872 43.2839 40.3799C43.6909 39.9726 43.9196 39.4201 43.9196 38.8441V30.6676C43.9185 30.4851 43.9641 30.3053 44.0518 30.1452C44.1395 29.9852 44.2666 29.8502 44.421 29.753C44.5754 29.6558 44.7521 29.5996 44.9342 29.5898C45.1164 29.5799 45.2981 29.6167 45.4621 29.6967L66.6989 40.7962ZM68.7061 11.2485C69.2167 10.9786 69.6004 10.5184 69.7744 9.96751C69.9484 9.4166 69.8986 8.8193 69.6356 8.30491C69.5065 8.04968 69.328 7.82264 69.1105 7.63695C68.893 7.45125 68.6409 7.31059 68.3687 7.22312C68.0964 7.13566 67.8096 7.10314 67.5247 7.12743C67.2398 7.15172 66.9626 7.23233 66.7091 7.36462L45.4621 18.4642C45.2969 18.5492 45.1126 18.5898 44.927 18.5821C44.7415 18.5744 44.5611 18.5186 44.4036 18.4202C44.2461 18.3218 44.1168 18.1842 44.0284 18.0208C43.94 17.8575 43.8954 17.6739 43.8992 17.4881V9.31164C43.8992 8.73563 43.6705 8.18321 43.2634 7.7759C42.8563 7.36859 42.3042 7.13976 41.7285 7.13976C41.1528 7.13976 40.6007 7.36859 40.1936 7.7759C39.7866 8.18321 39.5579 8.73563 39.5579 9.31164V17.4881C39.5452 18.4283 39.7774 19.3556 40.2315 20.1788C40.6857 21.0019 41.3461 21.6927 42.148 22.183C42.9498 22.6733 43.8654 22.9464 44.8047 22.9753C45.7439 23.0043 46.6746 22.7881 47.5051 22.348L68.7061 11.2485ZM9.86826 0.00578304H67.3322C68.0914 -0.0151396 68.8511 0.0207281 69.605 0.113095C71.4321 0.400771 73.1213 1.25978 74.4306 2.56702C75.7399 3.87425 76.6019 5.56263 76.8933 7.39018C76.9856 8.14277 77.0215 8.90121 77.0006 9.65916V38.5017C77.0215 39.2596 76.9856 40.0181 76.8933 40.7707C76.601 42.5973 75.7384 44.2845 74.4293 45.5908C73.1201 46.897 71.4314 47.7553 69.605 48.0426C68.8511 48.135 68.0914 48.1709 67.3322 48.15H9.67417C8.91495 48.1709 8.15523 48.135 7.40135 48.0426C5.57452 47.7542 3.88571 46.895 2.57658 45.5879C1.26746 44.2808 0.405146 42.5928 0.113043 40.7656C0.0207348 40.013 -0.0151288 39.2545 0.00577531 38.4966V9.65916C-0.0151288 8.90121 0.0207348 8.14277 0.113043 7.39018C0.405146 5.56294 1.26746 3.87498 2.57658 2.56788C3.88571 1.26077 5.57452 0.401516 7.40135 0.113095C8.15523 0.0207281 8.91495 -0.0151396 9.67417 0.00578304H9.86826Z" fill="#FA4F19"></path>
</svg><style>@media (prefers-color-scheme: light) { :root { filter: none; } }
@media (prefers-color-scheme: dark) { :root { filter: none; } }
</style></svg>